999
dxflib 3.26.4.0
  0
SECTION
  2
HEADER
  9
$ACADVER
  1
AC1015
  9
$HANDSEED
  5
FFFF
  9
$DIMADEC
 70
0
  9
$DIMASZ
 40
2.5
  9
$DIMATFIT
 70
0
  9
$DIMAUNIT
 70
0
  9
$DIMAZIN
 70
2
  9
$DIMBLK
  1

  9
$DIMDEC
 70
4
  9
$DIMDLI
 40
5.0
  9
$DIMDSEP
 70
46
  9
$DIMEXE
 40
1.25
  9
$DIMEXO
 40
0.625
  9
$DIMGAP
 40
0.625
  9
$DIMLFAC
 40
1.0
  9
$DIMLUNIT
 70
2
  9
$DIMSCALE
 40
1.0
  9
$DIMTAD
 70
1
  9
$DIMTIH
 70
0
  9
$DIMTSZ
 40
0.0
  9
$DIMTXT
 40
2.5
  9
$DIMZIN
 70
8
  9
$DWGCODEPAGE
  3
ANSI_1252
  9
$INSUNITS
 70
4
  9
$LTSCALE
 40
1.0
  9
$MAXACTVP
 70
64
  9
$MEASUREMENT
 70
1
  9
$MIRRTEXT
 70
0
  9
$PDMODE
 70
0
  9
$PDSIZE
 40
0.0
  0
ENDSEC
  0
SECTION
  2
TABLES
  0
TABLE
  2
VPORT
  5
8
100
AcDbSymbolTable
 70
1
  0
VPORT
  5
30
100
AcDbSymbolTableRecord
100
AcDbViewportTableRecord
  2
*Active
 70
0
 10
0.0
 20
0.0
 11
1.0
 21
1.0
 12
286.3055555555554861
 22
148.5
 13
0.0
 23
0.0
 14
10.0
 24
10.0
 15
10.0
 25
10.0
 16
0.0
 26
0.0
 36
1.0
 17
0.0
 27
0.0
 37
0.0
 40
297.0
 41
1.92798353909465
 42
50.0
 43
0.0
 44
0.0
 50
0.0
 51
0.0
 71
0
 72
100
 73
1
 74
3
 75
1
 76
1
 77
0
 78
0
281
0
 65
1
110
0.0
120
0.0
130
0.0
111
1.0
121
0.0
131
0.0
112
0.0
122
1.0
132
0.0
 79
0
146
0.0
  0
ENDTAB
  0
TABLE
  2
LTYPE
  5
5
100
AcDbSymbolTable
 70
41
  0
LTYPE
  5
16
100
AcDbSymbolTableRecord
100
AcDbLinetypeTableRecord
  2
Continuous
 70
0
  3
Solid line
 72
65
 73
0
 40
0.0
  0
LTYPE
  5
31
100
AcDbSymbolTableRecord
100
AcDbLinetypeTableRecord
  2
DOT
 70
0
  3
Dot . . . . . . . . . . . . . . . . . . . . . . . .
 72
65
 73
2
 40
6.3499999999999996
 49
0.0
 74
0
 49
-6.3499999999999996
 74
0
  0
LTYPE
  5
32
100
AcDbSymbolTableRecord
100
AcDbLinetypeTableRecord
  2
ACAD_ISO10W100
 70
0
  3
ISO dash dot __ . __ . __ . __ . __ . __ . __ . 
 72
65
 73
4
 40
18.0
 49
12.0
 74
0
 49
-3.0
 74
0
 49
0.0
 74
0
 49
-3.0
 74
0
  0
LTYPE
  5
33
100
AcDbSymbolTableRecord
100
AcDbLinetypeTableRecord
  2
ACAD_ISO11W100
 70
0
  3
ISO double-dash dot __ __ . __ __ . __ __ . __ _
 72
65
 73
6
 40
33.0
 49
12.0
 74
0
 49
-3.0
 74
0
 49
12.0
 74
0
 49
-3.0
 74
0
 49
0.0
 74
0
 49
-3.0
 74
0
  0
LTYPE
  5
34
100
AcDbSymbolTableRecord
100
AcDbLinetypeTableRecord
  2
PHANTOM2
 70
0
  3
Phantom (.5x) ___ _ _ ___ _ _ ___ _ _ ___ _ _
 72
65
 73
6
 40
31.7500000000000036
 49
15.875
 74
0
 49
-3.1749999999999998
 74
0
 49
3.1749999999999998
 74
0
 49
-3.1749999999999998
 74
0
 49
3.1749999999999998
 74
0
 49
-3.1749999999999998
 74
0
  0
LTYPE
  5
14
100
AcDbSymbolTableRecord
100
AcDbLinetypeTableRecord
  2
BYBLOCK
 70
0
  3

 72
65
 73
0
 40
0.0
  0
LTYPE
  5
35
100
AcDbSymbolTableRecord
100
AcDbLinetypeTableRecord
  2
CENTER2
 70
0
  3
Center (.5x) ___ _ ___ _ ___ _ ___ _ ___ _ ___
 72
65
 73
4
 40
28.5750000000000028
 49
19.0500000000000007
 74
0
 49
-3.1749999999999998
 74
0
 49
3.1749999999999998
 74
0
 49
-3.1749999999999998
 74
0
  0
LTYPE
  5
36
100
AcDbSymbolTableRecord
100
AcDbLinetypeTableRecord
  2
BORDER2
 70
0
  3
Border (.5x) __.__.__.__.__.__.__.__.__.__.__.
 72
65
 73
6
 40
22.2249999999999979
 49
6.3499999999999996
 74
0
 49
-3.1749999999999998
 74
0
 49
6.3499999999999996
 74
0
 49
-3.1749999999999998
 74
0
 49
0.0
 74
0
 49
-3.1749999999999998
 74
0
  0
LTYPE
  5
37
100
AcDbSymbolTableRecord
100
AcDbLinetypeTableRecord
  2
ACAD_ISO15W100
 70
0
  3
ISO double-dash triple-dot __ __ . . . __ __ . .
 72
65
 73
10
 40
39.0
 49
12.0
 74
0
 49
-3.0
 74
0
 49
12.0
 74
0
 49
-3.0
 74
0
 49
0.0
 74
0
 49
-3.0
 74
0
 49
0.0
 74
0
 49
-3.0
 74
0
 49
0.0
 74
0
 49
-3.0
 74
0
  0
LTYPE
  5
38
100
AcDbSymbolTableRecord
100
AcDbLinetypeTableRecord
  2
CENTERX2
 70
0
  3
Center (2x) ________  __  ________  __  _____
 72
65
 73
4
 40
101.6000000000000085
 49
63.5
 74
0
 49
-12.6999999999999993
 74
0
 49
12.6999999999999993
 74
0
 49
-12.6999999999999993
 74
0
  0
LTYPE
  5
39
100
AcDbSymbolTableRecord
100
AcDbLinetypeTableRecord
  2
PHANTOMX2
 70
0
  3
Phantom (2x) ____________    ____    ____   _
 72
65
 73
6
 40
127.0000000000000142
 49
63.5
 74
0
 49
-12.6999999999999993
 74
0
 49
12.6999999999999993
 74
0
 49
-12.6999999999999993
 74
0
 49
12.6999999999999993
 74
0
 49
-12.6999999999999993
 74
0
  0
LTYPE
  5
3A
100
AcDbSymbolTableRecord
100
AcDbLinetypeTableRecord
  2
ACAD_ISO05W100
 70
0
  3
ISO long-dash double-dot ____ .. ____ .. ____ . 
 72
65
 73
6
 40
33.0
 49
24.0
 74
0
 49
-3.0
 74
0
 49
0.0
 74
0
 49
-3.0
 74
0
 49
0.0
 74
0
 49
-3.0
 74
0
  0
LTYPE
  5
3B
100
AcDbSymbolTableRecord
100
AcDbLinetypeTableRecord
  2
DASHED2
 70
0
  3
Dashed (.5x) _ _ _ _ _ _ _ _ _ _ _ _ _ _ _ _ _ 
 72
65
 73
2
 40
9.5249999999999986
 49
6.3499999999999996
 74
0
 49
-3.1749999999999998
 74
0
  0
LTYPE
  5
3C
100
AcDbSymbolTableRecord
100
AcDbLinetypeTableRecord
  2
DIVIDE2
 70
0
  3
Divide (.5x) __..__..__..__..__..__..__..__.._
 72
65
 73
6
 40
15.875
 49
6.3499999999999996
 74
0
 49
-3.1749999999999998
 74
0
 49
0.0
 74
0
 49
-3.1749999999999998
 74
0
 49
0.0
 74
0
 49
-3.1749999999999998
 74
0
  0
LTYPE
  5
3D
100
AcDbSymbolTableRecord
100
AcDbLinetypeTableRecord
  2
DOTX2
 70
0
  3
Dot (2x) .  .  .  .  .  .  .  .  .  .  .  .  .  .
 72
65
 73
2
 40
12.6999999999999993
 49
0.0
 74
0
 49
-12.6999999999999993
 74
0
  0
LTYPE
  5
3E
100
AcDbSymbolTableRecord
100
AcDbLinetypeTableRecord
  2
DASHED
 70
0
  3
Dashed __ __ __ __ __ __ __ __ __ __ __ __ __ _
 72
65
 73
2
 40
19.0499999999999972
 49
12.6999999999999993
 74
0
 49
-6.3499999999999996
 74
0
  0
LTYPE
  5
3F
100
AcDbSymbolTableRecord
100
AcDbLinetypeTableRecord
  2
ACAD_ISO02W100
 70
0
  3
ISO dash __ __ __ __ __ __ __ __ __ __ __ __ __
 72
65
 73
2
 40
15.0
 49
12.0
 74
0
 49
-3.0
 74
0
  0
LTYPE
  5
40
100
AcDbSymbolTableRecord
100
AcDbLinetypeTableRecord
  2
DASHEDX2
 70
0
  3
Dashed (2x) ____  ____  ____  ____  ____  ___
 72
65
 73
2
 40
38.0999999999999943
 49
25.3999999999999986
 74
0
 49
-12.6999999999999993
 74
0
  0
LTYPE
  5
41
100
AcDbSymbolTableRecord
100
AcDbLinetypeTableRecord
  2
ACAD_ISO07W100
 70
0
  3
ISO dot . . . . . . . . . . . . . . . . . . . . 
 72
65
 73
2
 40
3.0
 49
0.0
 74
0
 49
-3.0
 74
0
  0
LTYPE
  5
42
100
AcDbSymbolTableRecord
100
AcDbLinetypeTableRecord
  2
HIDDENX2
 70
0
  3
Hidden (2x) ____ ____ ____ ____ ____ ____ ____ 
 72
65
 73
2
 40
19.0499999999999972
 49
12.6999999999999993
 74
0
 49
-6.3499999999999996
 74
0
  0
LTYPE
  5
43
100
AcDbSymbolTableRecord
100
AcDbLinetypeTableRecord
  2
ACAD_ISO09W100
 70
0
  3
ISO long-dash double-short-dash ____ __ __ ____
 72
65
 73
6
 40
45.0
 49
24.0
 74
0
 49
-3.0
 74
0
 49
6.0
 74
0
 49
-3.0
 74
0
 49
6.0
 74
0
 49
-3.0
 74
0
  0
LTYPE
  5
44
100
AcDbSymbolTableRecord
100
AcDbLinetypeTableRecord
  2
ACAD_ISO08W100
 70
0
  3
ISO long-dash short-dash ____ __ ____ __ ____ _
 72
65
 73
4
 40
36.0
 49
24.0
 74
0
 49
-3.0
 74
0
 49
6.0
 74
0
 49
-3.0
 74
0
  0
LTYPE
  5
45
100
AcDbSymbolTableRecord
100
AcDbLinetypeTableRecord
  2
BORDER
 70
0
  3
Border __ __ . __ __ . __ __ . __ __ . __ __ .
 72
65
 73
6
 40
44.4499999999999957
 49
12.6999999999999993
 74
0
 49
-6.3499999999999996
 74
0
 49
12.6999999999999993
 74
0
 49
-6.3499999999999996
 74
0
 49
0.0
 74
0
 49
-6.3499999999999996
 74
0
  0
LTYPE
  5
46
100
AcDbSymbolTableRecord
100
AcDbLinetypeTableRecord
  2
DOT2
 70
0
  3
Dot (.5x) ........................................
 72
65
 73
2
 40
3.1749999999999998
 49
0.0
 74
0
 49
-3.1749999999999998
 74
0
  0
LTYPE
  5
47
100
AcDbSymbolTableRecord
100
AcDbLinetypeTableRecord
  2
PHANTOM
 70
0
  3
Phantom ______  __  __  ______  __  __  ______ 
 72
65
 73
6
 40
63.5000000000000071
 49
31.75
 74
0
 49
-6.3499999999999996
 74
0
 49
6.3499999999999996
 74
0
 49
-6.3499999999999996
 74
0
 49
6.3499999999999996
 74
0
 49
-6.3499999999999996
 74
0
  0
LTYPE
  5
48
100
AcDbSymbolTableRecord
100
AcDbLinetypeTableRecord
  2
DASHDOT
 70
0
  3
Dash dot __ . __ . __ . __ . __ . __ . __ . __
 72
65
 73
4
 40
25.3999999999999986
 49
12.6999999999999993
 74
0
 49
-6.3499999999999996
 74
0
 49
0.0
 74
0
 49
-6.3499999999999996
 74
0
  0
LTYPE
  5
49
100
AcDbSymbolTableRecord
100
AcDbLinetypeTableRecord
  2
ACAD_ISO14W100
 70
0
  3
ISO dash triple-dot __ . . . __ . . . __ . . . _
 72
65
 73
8
 40
24.0
 49
12.0
 74
0
 49
-3.0
 74
0
 49
0.0
 74
0
 49
-3.0
 74
0
 49
0.0
 74
0
 49
-3.0
 74
0
 49
0.0
 74
0
 49
-3.0
 74
0
  0
LTYPE
  5
4A
100
AcDbSymbolTableRecord
100
AcDbLinetypeTableRecord
  2
HIDDEN2
 70
0
  3
Hidden (.5x) _ _ _ _ _ _ _ _ _ _ _ _ _ _ _ _ _ 
 72
65
 73
2
 40
4.7624999999999993
 49
3.1749999999999998
 74
0
 49
-1.5874999999999999
 74
0
  0
LTYPE
  5
4B
100
AcDbSymbolTableRecord
100
AcDbLinetypeTableRecord
  2
ACAD_ISO12W100
 70
0
  3
ISO dash double-dot __ . . __ . . __ . . __ . . 
 72
65
 73
6
 40
21.0
 49
12.0
 74
0
 49
-3.0
 74
0
 49
0.0
 74
0
 49
-3.0
 74
0
 49
0.0
 74
0
 49
-3.0
 74
0
  0
LTYPE
  5
4C
100
AcDbSymbolTableRecord
100
AcDbLinetypeTableRecord
  2
ACAD_ISO06W100
 70
0
  3
ISO long-dash triple-dot ____ ... ____ ... ____
 72
65
 73
8
 40
36.0
 49
24.0
 74
0
 49
-3.0
 74
0
 49
0.0
 74
0
 49
-3.0
 74
0
 49
0.0
 74
0
 49
-3.0
 74
0
 49
0.0
 74
0
 49
-3.0
 74
0
  0
LTYPE
  5
4D
100
AcDbSymbolTableRecord
100
AcDbLinetypeTableRecord
  2
HIDDEN
 70
0
  3
Hidden __ __ __ __ __ __ __ __ __ __ __ __ __ __
 72
65
 73
2
 40
9.5249999999999986
 49
6.3499999999999996
 74
0
 49
-3.1749999999999998
 74
0
  0
LTYPE
  5
4E
100
AcDbSymbolTableRecord
100
AcDbLinetypeTableRecord
  2
DASHDOTX2
 70
0
  3
Dash dot (2x) ____  .  ____  .  ____  .  ___
 72
65
 73
4
 40
50.7999999999999972
 49
25.3999999999999986
 74
0
 49
-12.6999999999999993
 74
0
 49
0.0
 74
0
 49
-12.6999999999999993
 74
0
  0
LTYPE
  5
4F
100
AcDbSymbolTableRecord
100
AcDbLinetypeTableRecord
  2
BORDERX2
 70
0
  3
Border (2x) ____  ____  .  ____  ____  .  ___
 72
65
 73
6
 40
88.8999999999999915
 49
25.3999999999999986
 74
0
 49
-12.6999999999999993
 74
0
 49
25.3999999999999986
 74
0
 49
-12.6999999999999993
 74
0
 49
0.0
 74
0
 49
-12.6999999999999993
 74
0
  0
LTYPE
  5
50
100
AcDbSymbolTableRecord
100
AcDbLinetypeTableRecord
  2
DASHDOT2
 70
0
  3
Dash dot (.5x) _._._._._._._._._._._._._._._.
 72
65
 73
4
 40
12.6999999999999993
 49
6.3499999999999996
 74
0
 49
-3.1749999999999998
 74
0
 49
0.0
 74
0
 49
-3.1749999999999998
 74
0
  0
LTYPE
  5
51
100
AcDbSymbolTableRecord
100
AcDbLinetypeTableRecord
  2
DIVIDEX2
 70
0
  3
Divide (2x) ________  .  .  ________  .  .  _
 72
65
 73
6
 40
63.5
 49
25.3999999999999986
 74
0
 49
-12.6999999999999993
 74
0
 49
0.0
 74
0
 49
-12.6999999999999993
 74
0
 49
0.0
 74
0
 49
-12.6999999999999993
 74
0
  0
LTYPE
  5
52
100
AcDbSymbolTableRecord
100
AcDbLinetypeTableRecord
  2
ACAD_ISO13W100
 70
0
  3
ISO double-dash double-dot __ __ . . __ __ . . _
 72
65
 73
8
 40
36.0
 49
12.0
 74
0
 49
-3.0
 74
0
 49
12.0
 74
0
 49
-3.0
 74
0
 49
0.0
 74
0
 49
-3.0
 74
0
 49
0.0
 74
0
 49
-3.0
 74
0
  0
LTYPE
  5
53
100
AcDbSymbolTableRecord
100
AcDbLinetypeTableRecord
  2
CENTER
 70
0
  3
Center ____ _ ____ _ ____ _ ____ _ ____ _ ____
 72
65
 73
4
 40
50.8000000000000043
 49
31.75
 74
0
 49
-6.3499999999999996
 74
0
 49
6.3499999999999996
 74
0
 49
-6.3499999999999996
 74
0
  0
LTYPE
  5
54
100
AcDbSymbolTableRecord
100
AcDbLinetypeTableRecord
  2
DIVIDE
 70
0
  3
Divide ____ . . ____ . . ____ . . ____ . . ____
 72
65
 73
6
 40
31.75
 49
12.6999999999999993
 74
0
 49
-6.3499999999999996
 74
0
 49
0.0
 74
0
 49
-6.3499999999999996
 74
0
 49
0.0
 74
0
 49
-6.3499999999999996
 74
0
  0
LTYPE
  5
55
100
AcDbSymbolTableRecord
100
AcDbLinetypeTableRecord
  2
ACAD_ISO04W100
 70
0
  3
ISO long-dash dot ____ . ____ . ____ . ____ . _
 72
65
 73
4
 40
30.0
 49
24.0
 74
0
 49
-3.0
 74
0
 49
0.0
 74
0
 49
-3.0
 74
0
  0
LTYPE
  5
56
100
AcDbSymbolTableRecord
100
AcDbLinetypeTableRecord
  2
ACAD_ISO03W100
 70
0
  3
ISO dash space __    __    __    __    __    __
 72
65
 73
2
 40
30.0
 49
12.0
 74
0
 49
-18.0
 74
0
  0
LTYPE
  5
15
100
AcDbSymbolTableRecord
100
AcDbLinetypeTableRecord
  2
BYLAYER
 70
0
  3

 72
65
 73
0
 40
0.0
  0
ENDTAB
  0
TABLE
  2
LAYER
  5
2
100
AcDbSymbolTable
 70
6
  0
LAYER
  5
57
100
AcDbSymbolTableRecord
100
AcDbLayerTableRecord
  2
Layer0View0
 70
0
 62
7
420
16777215
  6
Continuous
370
-3
390
F
  0
LAYER
  5
58
100
AcDbSymbolTableRecord
100
AcDbLayerTableRecord
  2
G
 70
0
 62
7
420
16777215
  6
Continuous
370
30
390
F
  0
LAYER
  5
59
100
AcDbSymbolTableRecord
100
AcDbLayerTableRecord
  2
Layer3
 70
0
 62
7
420
16777215
  6
Continuous
370
30
390
F
  0
LAYER
  5
10
100
AcDbSymbolTableRecord
100
AcDbLayerTableRecord
  2
0
 70
0
 62
7
420
16777215
  6
Continuous
370
25
390
F
  0
LAYER
  5
5A
100
AcDbSymbolTableRecord
100
AcDbLayerTableRecord
  2
OSI
 70
0
 62
250
420
5526612
  6
Continuous
370
-3
390
F
  0
LAYER
  5
5B
100
AcDbSymbolTableRecord
100
AcDbLayerTableRecord
  2
R
 70
0
 62
7
420
16777215
  6
Continuous
370
-3
390
F
  0
ENDTAB
  0
TABLE
  2
STYLE
  5
3
100
AcDbSymbolTable
 70
1
  0
STYLE
  5
5C
100
AcDbSymbolTableRecord
100
AcDbTextStyleTableRecord
  2
Standard
 70
0
 40
0.0
 41
1.0
 50
0.0
 71
0
 42
2.5
  3

  4

1001
ACAD
1000
txt
1071
0
  0
ENDTAB
  0
TABLE
  2
VIEW
  5
6
100
AcDbSymbolTable
 70
0
  0
ENDTAB
  0
TABLE
  2
UCS
  5
7
100
AcDbSymbolTable
 70
0
  0
ENDTAB
  0
TABLE
  2
APPID
  5
9
100
AcDbSymbolTable
 70
1
  0
APPID
  5
12
100
AcDbSymbolTableRecord
100
AcDbRegAppTableRecord
  2
ACAD
 70
0
  0
APPID
  5
5D
100
AcDbSymbolTableRecord
100
AcDbRegAppTableRecord
  2
QCAD
 70
0
  0
ENDTAB
  0
TABLE
  2
DIMSTYLE
  5
A
100
AcDbSymbolTable
 70
1
100
AcDbDimStyleTable
 71
0
  0
DIMSTYLE
105
27
100
AcDbSymbolTableRecord
100
AcDbDimStyleTableRecord
  2
Standard
 41
2.5
 42
0.625
 43
3.75
 44
1.25
 70
0
 73
0
 74
0
 77
1
 78
8
140
2.5
141
2.5
143
0.03937007874016
147
0.625
171
3
172
1
271
2
272
2
274
3
278
44
283
0
284
8
340
5C
  0
ENDTAB
  0
TABLE
  2
BLOCK_RECORD
  5
1
100
AcDbSymbolTable
 70
1
  0
BLOCK_RECORD
  5
1F
100
AcDbSymbolTableRecord
100
AcDbBlockTableRecord
  2
*Model_Space
340
22
  0
BLOCK_RECORD
  5
1B
100
AcDbSymbolTableRecord
100
AcDbBlockTableRecord
  2
*Paper_Space
340
1E
  0
BLOCK_RECORD
  5
23
100
AcDbSymbolTableRecord
100
AcDbBlockTableRecord
  2
*Paper_Space0
340
26
  0
ENDTAB
  0
ENDSEC
  0
SECTION
  2
BLOCKS
  0
BLOCK
  5
20
100
AcDbEntity
  8
0
100
AcDbBlockBegin
  2
*Model_Space
 70
0
 10
0.0
 20
0.0
 30
0.0
  3
*Model_Space
  1

  0
ENDBLK
  5
21
100
AcDbEntity
  8
0
100
AcDbBlockEnd
  0
BLOCK
  5
1C
100
AcDbEntity
 67
1
  8
0
100
AcDbBlockBegin
  2
*Paper_Space
 70
0
 10
0.0
 20
0.0
 30
0.0
  3
*Paper_Space
  1

  0
ENDBLK
  5
1D
100
AcDbEntity
 67
1
  8
0
100
AcDbBlockEnd
  0
BLOCK
  5
24
100
AcDbEntity
  8
0
100
AcDbBlockBegin
  2
*Paper_Space0
 70
0
 10
0.0
 20
0.0
 30
0.0
  3
*Paper_Space0
  1

  0
ENDBLK
  5
25
100
AcDbEntity
  8
0
100
AcDbBlockEnd
  0
ENDSEC
  0
SECTION
  2
ENTITIES
  0
LINE
  5
5E
100
AcDbEntity
  8
G
 62
256
370
-1
 48
1.0
  6
BYLAYER
100
AcDbLine
 10
-2.0267008091022944
 20
41.5645438196486339
 30
0.0
 11
0.2261543486856681
 21
37.6228648091346258
 31
0.0
  0
ARC
  5
5F
100
AcDbEntity
  8
G
 62
256
370
-1
 48
1.0
  6
BYLAYER
100
AcDbCircle
 10
46.4966615123216798
 20
66.7494223991516265
 30
0.0
 40
60.8403570050658686
100
AcDbArc
 50
35.6231781849171085
 51
50.8599410513677981
  0
ARC
  5
60
100
AcDbEntity
  8
G
 62
256
370
-1
 48
1.0
  6
BYLAYER
100
AcDbCircle
 10
49.260941776722575
 20
68.2632006503035882
 30
0.0
 40
57.8207623485909892
100
AcDbArc
 50
31.5000000000063984
 51
35.999999999983153
  0
ARC
  5
61
100
AcDbEntity
  8
G
 62
256
370
-1
 48
1.0
  6
BYLAYER
100
AcDbCircle
 10
50.0338713171656764
 20
68.956780856219666
 30
0.0
 40
58.8528943063339085
100
AcDbArc
 50
215.6127478902943153
 51
231.8361828906882067
  0
LINE
  5
62
100
AcDbEntity
  8
G
 62
256
370
-1
 48
1.0
  6
BYLAYER
100
AcDbLine
 10
44.8131908268305779
 20
97.9542286609275834
 30
0.0
 11
44.8131908268305779
 21
93.837768612179616
 31
0.0
  0
ARC
  5
63
100
AcDbEntity
  8
G
 62
256
370
-1
 48
1.0
  6
BYLAYER
100
AcDbCircle
 10
49.260941776722575
 20
93.837768612179616
 30
0.0
 40
4.4477509498916126
100
AcDbArc
 50
180.0
 51
270.0
  0
LINE
  5
64
100
AcDbEntity
  8
G
 62
256
370
-1
 48
1.0
  6
BYLAYER
100
AcDbLine
 10
47.0370663017756669
 20
93.837768612179616
 30
0.0
 11
47.0370663017756669
 21
92.7258308747066167
 31
0.0
  0
LINE
  5
65
100
AcDbEntity
  8
G
 62
256
370
-1
 48
1.0
  6
BYLAYER
100
AcDbLine
 10
47.0370663017756669
 20
92.7258308747066167
 30
0.0
 11
49.260941776722575
 21
91.6138931372336174
 31
0.0
  0
LINE
  5
66
100
AcDbEntity
  8
G
 62
256
370
-1
 48
1.0
  6
BYLAYER
100
AcDbLine
 10
47.0370663017756669
 20
93.837768612179616
 30
0.0
 11
47.0370663017756669
 21
94.9497063496526152
 31
0.0
  0
LINE
  5
67
100
AcDbEntity
  8
G
 62
256
370
-1
 48
1.0
  6
BYLAYER
100
AcDbLine
 10
47.0370663017756669
 20
94.9497063496526152
 30
0.0
 11
49.260941776722575
 21
96.0616440871256145
 31
0.0
  0
LINE
  5
68
100
AcDbEntity
  8
G
 62
256
370
-1
 48
1.0
  6
BYLAYER
100
AcDbLine
 10
51.4848172516676641
 20
93.837768612179616
 30
0.0
 11
51.4848172516676641
 21
92.7258308747066167
 31
0.0
  0
LINE
  5
69
100
AcDbEntity
  8
G
 62
256
370
-1
 48
1.0
  6
BYLAYER
100
AcDbLine
 10
51.4848172516676641
 20
92.7258308747066167
 30
0.0
 11
49.260941776722575
 21
91.6138931372336174
 31
0.0
  0
LINE
  5
6A
100
AcDbEntity
  8
G
 62
256
370
-1
 48
1.0
  6
BYLAYER
100
AcDbLine
 10
51.4848172516676641
 20
94.9497063496526152
 30
0.0
 11
49.260941776722575
 21
96.0616440871256145
 31
0.0
  0
LINE
  5
6B
100
AcDbEntity
  8
G
 62
256
370
-1
 48
1.0
  6
BYLAYER
100
AcDbLine
 10
51.4848172516676641
 20
93.837768612179616
 30
0.0
 11
51.4848172516676641
 21
94.9497063496526152
 31
0.0
  0
LINE
  5
6C
100
AcDbEntity
  8
G
 62
256
370
-1
 48
1.0
  6
BYLAYER
100
AcDbLine
 10
51.4848172516676641
 20
94.9497063496526152
 30
0.0
 11
49.260941776722575
 21
96.0616440871256145
 31
0.0
  0
LINE
  5
6D
100
AcDbEntity
  8
G
 62
256
370
-1
 48
1.0
  6
BYLAYER
100
AcDbLine
 10
53.7086927266125258
 20
97.9542286609275834
 30
0.0
 11
53.7086927266125258
 21
93.837768612179616
 31
0.0
  0
ARC
  5
6E
100
AcDbEntity
  8
G
 62
256
370
-1
 48
1.0
  6
BYLAYER
100
AcDbCircle
 10
49.260941776722575
 20
93.837768612179616
 30
0.0
 40
4.4477509498916126
100
AcDbArc
 50
270.0
 51
0.0
  0
ARC
  5
6F
100
AcDbEntity
  8
G
 62
256
370
-1
 48
1.0
  6
BYLAYER
100
AcDbCircle
 10
27.1127162309246614
 20
55.4759166693645511
 30
0.0
 40
4.4477509498916126
100
AcDbArc
 50
299.9999999999973284
 51
30.0000000000150813
  0
LINE
  5
70
100
AcDbEntity
  8
G
 62
256
370
-1
 48
1.0
  6
BYLAYER
100
AcDbLine
 10
25.771632729991552
 20
49.5658213326785244
 30
0.0
 11
29.3365917058715695
 21
51.6240513570526218
 31
0.0
  0
LINE
  5
71
100
AcDbEntity
  8
G
 62
256
370
-1
 48
1.0
  6
BYLAYER
100
AcDbLine
 10
28.2246539683965239
 20
53.5499840132085865
 30
0.0
 11
27.2616876403196784
 21
52.9940151444716321
 31
0.0
  0
LINE
  5
72
100
AcDbEntity
  8
G
 62
256
370
-1
 48
1.0
  6
BYLAYER
100
AcDbLine
 10
29.187620296475643
 20
54.1059528819446314
 30
0.0
 11
29.0386488870806261
 21
56.5878544068386873
 31
0.0
  0
LINE
  5
73
100
AcDbEntity
  8
G
 62
256
370
-1
 48
1.0
  6
BYLAYER
100
AcDbLine
 10
28.2246539683965239
 20
53.5499840132085865
 30
0.0
 11
29.187620296475643
 21
54.1059528819446314
 31
0.0
  0
LINE
  5
74
100
AcDbEntity
  8
G
 62
256
370
-1
 48
1.0
  6
BYLAYER
100
AcDbLine
 10
27.2616876403196784
 20
52.9940151444716321
 30
0.0
 11
25.1867835747686968
 21
54.3639789318915518
 31
0.0
  0
LINE
  5
75
100
AcDbEntity
  8
G
 62
256
370
-1
 48
1.0
  6
BYLAYER
100
AcDbLine
 10
25.0378121653736798
 20
56.8458804567846983
 30
0.0
 11
25.1867835747686968
 21
54.3639789318915518
 31
0.0
  0
LINE
  5
76
100
AcDbEntity
  8
G
 62
256
370
-1
 48
1.0
  6
BYLAYER
100
AcDbLine
 10
26.0007784934516621
 20
57.4018493255207432
 30
0.0
 11
26.9637448215296445
 21
57.9578181942576975
 31
0.0
  0
LINE
  5
77
100
AcDbEntity
  8
G
 62
256
370
-1
 48
1.0
  6
BYLAYER
100
AcDbLine
 10
26.0007784934516621
 20
57.4018493255207432
 30
0.0
 11
25.0378121653736798
 21
56.8458804567846983
 31
0.0
  0
LINE
  5
78
100
AcDbEntity
  8
G
 62
256
370
-1
 48
1.0
  6
BYLAYER
100
AcDbLine
 10
26.9637448215296445
 20
57.9578181942576975
 30
0.0
 11
29.0386488870806261
 21
56.5878544068386873
 31
0.0
  0
ARC
  5
79
100
AcDbEntity
  8
G
 62
256
370
-1
 48
1.0
  6
BYLAYER
100
AcDbCircle
 10
27.1127162309246614
 20
55.4759166693645511
 30
0.0
 40
4.4477509498916126
100
AcDbArc
 50
30.0000000000150813
 51
119.9999999999972999
  0
LINE
  5
7A
100
AcDbEntity
  8
G
 62
256
370
-1
 48
1.0
  6
BYLAYER
100
AcDbLine
 10
21.3238817800995548
 20
57.2695519573035199
 30
0.0
 11
24.8888407559795724
 21
59.3277819816776173
 31
0.0
  0
LINE
  5
7B
100
AcDbEntity
  8
OSI
 62
256
370
-1
 48
1.0
  6
BYLAYER
100
AcDbLine
 10
26.0007784934516621
 20
57.4018493255207432
 30
0.0
 11
30.5902938187646214
 21
49.4525755999636658
 31
0.0
  0
LINE
  5
7C
100
AcDbEntity
  8
OSI
 62
256
370
-1
 48
1.0
  6
BYLAYER
100
AcDbLine
 10
26.0007784934516621
 20
57.4018493255207432
 30
0.0
 11
23.8986107677626478
 21
61.0429106324456825
 31
0.0
  0
LINE
  5
7D
100
AcDbEntity
  8
OSI
 62
256
370
-1
 48
1.0
  6
BYLAYER
100
AcDbLine
 10
29.0386488870806261
 20
56.5878544068386873
 30
0.0
 11
32.6752222958295988
 21
58.6874310433065602
 31
0.0
  0
LINE
  5
7E
100
AcDbEntity
  8
OSI
 62
256
370
-1
 48
1.0
  6
BYLAYER
100
AcDbLine
 10
29.0386488870806261
 20
56.5878544068386873
 30
0.0
 11
23.2608509186127321
 21
53.2520411944185525
 31
0.0
  0
LINE
  5
7F
100
AcDbEntity
  8
OSI
 62
256
370
-1
 48
1.0
  6
BYLAYER
100
AcDbLine
 10
47.0370663017756669
 20
93.837768612179616
 30
0.0
 11
43.1152108847757063
 21
93.837768612179616
 31
0.0
  0
LINE
  5
80
100
AcDbEntity
  8
OSI
 62
256
370
-1
 48
1.0
  6
BYLAYER
100
AcDbLine
 10
47.0370663017756669
 20
93.837768612179616
 30
0.0
 11
55.7110169777515694
 21
93.837768612179616
 31
0.0
  0
LINE
  5
81
100
AcDbEntity
  8
OSI
 62
256
370
-1
 48
1.0
  6
BYLAYER
100
AcDbLine
 10
14.8604996211456637
 20
127.8465142665945677
 30
0.0
 11
14.1583664501185922
 21
129.0626445924926884
 31
0.0
  0
LINE
  5
82
100
AcDbEntity
  8
OSI
 62
256
370
-1
 48
1.0
  6
BYLAYER
100
AcDbLine
 10
83.6613839322976673
 20
127.8465142665945677
 30
0.0
 11
84.3635171033247389
 21
129.0626445924926884
 31
0.0
  0
LINE
  5
83
100
AcDbEntity
  8
0
 62
256
370
-1
 48
1.0
  6
BYLAYER
100
AcDbLine
 10
76.0868479620685321
 20
114.7270331223996891
 30
0.0
 11
83.6613839322976673
 21
127.8465142665945677
 31
0.0
  0
LINE
  5
84
100
AcDbEntity
  8
G
 62
256
370
-1
 48
1.0
  6
BYLAYER
100
AcDbLine
 10
81.3795218144045975
 20
124.2227247110786266
 30
0.0
 11
85.2645488800976636
 21
122.0573025325895742
 31
0.0
  0
LINE
  5
85
100
AcDbEntity
  8
G
 62
256
370
-1
 48
1.0
  6
BYLAYER
100
AcDbLine
 10
85.0416402344567359
 20
117.0895643776525503
 30
0.0
 11
85.2645488800985731
 21
122.0573025325895742
 31
0.0
  0
LINE
  5
86
100
AcDbEntity
  8
0
 62
256
370
-1
 48
1.0
  6
BYLAYER
100
AcDbLine
 10
79.214099635916682
 20
120.3376976453855605
 30
0.0
 11
84.5804309426025611
 21
117.3466315261207455
 31
0.0
  0
LINE
  5
87
100
AcDbEntity
  8
G
 62
256
370
-1
 48
1.0
  6
BYLAYER
100
AcDbLine
 10
85.0416402344567359
 20
117.0895643776525503
 30
0.0
 11
84.9002042336085196
 21
113.937524151166599
 31
0.0
  0
LINE
  5
88
100
AcDbEntity
  8
OSI
 62
256
370
-1
 48
1.0
  6
BYLAYER
100
AcDbLine
 10
84.5804309426025611
 20
117.3466315261207455
 30
0.0
 11
86.0519953327595886
 21
116.5264163477877446
 31
0.0
  0
ARC
  5
89
100
AcDbEntity
  8
G
 62
256
370
-1
 48
1.0
  6
BYLAYER
100
AcDbCircle
 10
80.923698597335715
 20
123.433215739844627
 30
0.0
 40
10.8710880437293902
100
AcDbArc
 50
240.8657386716407984
 51
288.8963658972908775
  0
LINE
  5
8A
100
AcDbEntity
  8
OSI
 62
256
370
-1
 48
1.0
  6
BYLAYER
100
AcDbLine
 10
76.0868479620685321
 20
114.7270331223996891
 30
0.0
 11
74.7673722663896569
 21
112.4416341781316078
 31
0.0
  0
ARC
  5
8B
100
AcDbEntity
  8
G
 62
256
370
-1
 48
1.0
  6
BYLAYER
100
AcDbCircle
 10
81.0665687668627015
 20
123.3521625638127261
 30
0.0
 40
10.8710880437293902
100
AcDbArc
 50
191.9693727743492104
 51
240.0000000000026716
  0
LINE
  5
8C
100
AcDbEntity
  8
OSI
 62
256
370
-1
 48
1.0
  6
BYLAYER
100
AcDbLine
 10
73.9779910492986801
 20
123.3616130291156878
 30
0.0
 11
72.5189876154915964
 21
124.2039690543736015
 31
0.0
  0
LINE
  5
8D
100
AcDbEntity
  8
0
 62
256
370
-1
 48
1.0
  6
BYLAYER
100
AcDbLine
 10
79.2985165089876318
 20
120.289806222734569
 30
0.0
 11
73.9779910492986801
 21
123.3616130291156878
 31
0.0
  0
LINE
  5
8E
100
AcDbEntity
  8
G
 62
256
370
-1
 48
1.0
  6
BYLAYER
100
AcDbLine
 10
73.520718540518601
 20
123.6256194351526574
 30
0.0
 11
70.8876566210947203
 21
121.8871296709596663
 31
0.0
  0
LINE
  5
8F
100
AcDbEntity
  8
G
 62
256
370
-1
 48
1.0
  6
BYLAYER
100
AcDbLine
 10
73.520718540518601
 20
123.6256194351526574
 30
0.0
 11
77.6705266716205642
 21
126.3655470099927243
 31
0.0
  0
LINE
  5
90
100
AcDbEntity
  8
G
 62
256
370
-1
 48
1.0
  6
BYLAYER
100
AcDbLine
 10
81.5223919839336304
 20
124.1416715350467257
 30
0.0
 11
77.6705266716205642
 21
126.3655470099927243
 31
0.0
  0
LINE
  5
91
100
AcDbEntity
  8
G
 62
256
370
-1
 48
1.0
  6
BYLAYER
100
AcDbLine
 10
49.260941776722575
 20
6.8976612453166126
 30
0.0
 11
26.0618419992715644
 21
6.8976612453166126
 31
0.0
  0
LINE
  5
92
100
AcDbEntity
  8
G
 62
256
370
-1
 48
1.0
  6
BYLAYER
100
AcDbLine
 10
49.260941776722575
 20
5.7857235078436133
 30
0.0
 11
41.1751350885315333
 21
5.7857235078436133
 31
0.0
  0
ARC
  5
93
100
AcDbEntity
  8
G
 62
256
370
-1
 48
1.0
  6
BYLAYER
100
AcDbCircle
 10
49.260941776722575
 20
68.2632006503035882
 30
0.0
 40
65.6043265109013021
100
AcDbArc
 50
290.7089824013420412
 51
296.6007354213778058
  0
ARC
  5
94
100
AcDbEntity
  8
G
 62
256
370
-1
 48
1.0
  6
BYLAYER
100
AcDbCircle
 10
49.260941776722575
 20
68.2632006503035882
 30
0.0
 40
66.7162642483742019
100
AcDbArc
 50
290.5337952111498794
 51
297.1582324494650038
  0
LINE
  5
95
100
AcDbEntity
  8
G
 62
256
370
-1
 48
1.0
  6
BYLAYER
100
AcDbLine
 10
16.9774731495836022
 20
7.7111110175126214
 30
0.0
 11
16.9774731495836022
 21
3.5618480328976148
 31
0.0
  0
LINE
  5
96
100
AcDbEntity
  8
G
 62
256
370
-1
 48
1.0
  6
BYLAYER
100
AcDbLine
 10
11.4508397469717238
 20
12.4573499326816091
 30
0.0
 11
5.8580957748545188
 21
12.4573499326806996
 31
0.0
  0
LINE
  5
97
100
AcDbEntity
  8
OSI
 62
256
370
-1
 48
1.0
  6
BYLAYER
100
AcDbLine
 10
5.8580957748545188
 20
12.4573499326806996
 30
0.0
 11
5.8580957748545188
 21
15.1694703846296761
 31
0.0
  0
LINE
  5
98
100
AcDbEntity
  8
G
 62
256
370
-1
 48
1.0
  6
BYLAYER
100
AcDbLine
 10
-5.2612815998743372
 20
12.4573499326806996
 30
0.0
 11
5.8580957748545188
 21
12.4573499326806996
 31
0.0
  0
LINE
  5
99
100
AcDbEntity
  8
G
 62
256
370
-1
 48
1.0
  6
BYLAYER
100
AcDbLine
 10
-5.2612815998743372
 20
12.4573499326806996
 30
0.0
 11
-5.2612815998743372
 21
3.5618480328976148
 31
0.0
  0
LINE
  5
9A
100
AcDbEntity
  8
G
 62
256
370
-1
 48
1.0
  6
BYLAYER
100
AcDbLine
 10
-5.2612815998743372
 20
3.5618480328976148
 30
0.0
 11
16.9774731495836022
 21
3.5618480328976148
 31
0.0
  0
LINE
  5
9B
100
AcDbEntity
  8
G
 62
256
370
-1
 48
1.0
  6
BYLAYER
100
AcDbLine
 10
20.8143833927756532
 20
10.2077703501936412
 30
0.0
 11
20.3097244941207009
 21
9.8793911937145822
 31
0.0
  0
LINE
  5
9C
100
AcDbEntity
  8
G
 62
256
370
-1
 48
1.0
  6
BYLAYER
100
AcDbLine
 10
13.2493361212236778
 20
14.5666926435035293
 30
0.0
 11
13.2147652118176211
 21
13.8963622542266876
 31
0.0
  0
LINE
  5
9D
100
AcDbEntity
  8
G
 62
256
370
-1
 48
1.0
  6
BYLAYER
100
AcDbLine
 10
24.9824180968596465
 20
12.9198908021417083
 30
0.0
 11
20.8143833927756532
 21
10.2077703501936412
 31
0.0
  0
LINE
  5
9E
100
AcDbEntity
  8
0
 62
256
370
-1
 48
1.0
  6
BYLAYER
100
AcDbLine
 10
19.1928821003555186
 20
16.3117789483376328
 30
0.0
 11
24.4927503408646317
 21
13.2044674325466076
 31
0.0
  0
LINE
  5
9F
100
AcDbEntity
  8
0
 62
256
370
-1
 48
1.0
  6
BYLAYER
100
AcDbLine
 10
22.4416719135715539
 20
21.852954290321577
 30
0.0
 11
15.7493048079327309
 21
10.4383717173257082
 31
0.0
  0
LINE
  5
A0
100
AcDbEntity
  8
0
 62
256
370
-1
 48
1.0
  6
BYLAYER
100
AcDbLine
 10
19.276976881456676
 20
16.2633241795927006
 30
0.0
 11
13.930763980449683
 21
19.2902030737736823
 31
0.0
  0
LINE
  5
A1
100
AcDbEntity
  8
G
 62
256
370
-1
 48
1.0
  6
BYLAYER
100
AcDbLine
 10
24.9824180968596465
 20
12.9198908021417083
 30
0.0
 11
27.6270448148775358
 21
14.6407368888305882
 31
0.0
  0
LINE
  5
A2
100
AcDbEntity
  8
G
 62
256
370
-1
 48
1.0
  6
BYLAYER
100
AcDbLine
 10
13.5054543964927234
 20
19.5328293783707068
 30
0.0
 11
13.2493361212236778
 21
14.5666926435035293
 31
0.0
  0
LINE
  5
A3
100
AcDbEntity
  8
G
 62
256
370
-1
 48
1.0
  6
BYLAYER
100
AcDbLine
 10
13.5054543964927234
 20
19.5328293783707068
 30
0.0
 11
13.6679619766437099
 21
22.683853500480609
 31
0.0
  0
LINE
  5
A4
100
AcDbEntity
  8
G
 62
256
370
-1
 48
1.0
  6
BYLAYER
100
AcDbLine
 10
81.5444104038597288
 20
7.7111110175217163
 30
0.0
 11
81.5444104038597288
 21
3.5618480328976148
 31
0.0
  0
LINE
  5
A5
100
AcDbEntity
  8
G
 62
256
370
-1
 48
1.0
  6
BYLAYER
100
AcDbLine
 10
81.5444104038597288
 20
3.5618480328976148
 30
0.0
 11
85.992161353751726
 21
3.5618480328976148
 31
0.0
  0
LINE
  5
A6
100
AcDbEntity
  8
G
 62
256
370
-1
 48
1.0
  6
BYLAYER
100
AcDbLine
 10
85.992161353751726
 20
3.5618480328976148
 30
0.0
 11
85.992161353751726
 21
5.7857235078436133
 31
0.0
  0
LINE
  5
A7
100
AcDbEntity
  8
G
 62
256
370
-1
 48
1.0
  6
BYLAYER
100
AcDbLine
 10
81.5444104038597288
 20
5.7857235078436133
 30
0.0
 11
92.6637877785888122
 21
5.7857235078436133
 31
0.0
  0
LINE
  5
A8
100
AcDbEntity
  8
G
 62
256
370
-1
 48
1.0
  6
BYLAYER
100
AcDbLine
 10
87.0710438064725167
 20
12.4573499326806996
 30
0.0
 11
92.6637877785888122
 21
12.4573499326806996
 31
0.0
  0
LINE
  5
A9
100
AcDbEntity
  8
OSI
 62
256
370
-1
 48
1.0
  6
BYLAYER
100
AcDbLine
 10
92.6637877785897217
 20
12.4573499326806996
 30
0.0
 11
92.6637877785897217
 21
15.1694703846296761
 31
0.0
  0
LINE
  5
AA
100
AcDbEntity
  8
G
 62
256
370
-1
 48
1.0
  6
BYLAYER
100
AcDbLine
 10
103.7831651533174409
 20
12.4573499326806996
 30
0.0
 11
92.6637877785888122
 21
12.4573499326806996
 31
0.0
  0
LINE
  5
AB
100
AcDbEntity
  8
G
 62
256
370
-1
 48
1.0
  6
BYLAYER
100
AcDbLine
 10
103.7831651533174409
 20
5.7857235078436133
 30
0.0
 11
103.7831651533174409
 21
3.5618480328976148
 31
0.0
  0
LINE
  5
AC
100
AcDbEntity
  8
G
 62
256
370
-1
 48
1.0
  6
BYLAYER
100
AcDbLine
 10
103.7831651533174409
 20
12.4573499326806996
 30
0.0
 11
103.7831651533174409
 21
5.7857235078436133
 31
0.0
  0
LINE
  5
AD
100
AcDbEntity
  8
G
 62
256
370
-1
 48
1.0
  6
BYLAYER
100
AcDbLine
 10
103.7831651533174409
 20
3.5618480328976148
 30
0.0
 11
99.3354142034268079
 21
3.5618480328976148
 31
0.0
  0
LINE
  5
AE
100
AcDbEntity
  8
G
 62
256
370
-1
 48
1.0
  6
BYLAYER
100
AcDbLine
 10
99.3354142034268079
 20
3.5618480328976148
 30
0.0
 11
99.3354142034268079
 21
5.7857235078436133
 31
0.0
  0
LINE
  5
AF
100
AcDbEntity
  8
G
 62
256
370
-1
 48
1.0
  6
BYLAYER
100
AcDbLine
 10
103.7831651533174409
 20
5.7857235078436133
 30
0.0
 11
92.6637877785888122
 21
5.7857235078436133
 31
0.0
  0
LINE
  5
B0
100
AcDbEntity
  8
G
 62
256
370
-1
 48
1.0
  6
BYLAYER
100
AcDbLine
 10
77.707500160666541
 20
10.2077703501936412
 30
0.0
 11
81.5444104038606383
 21
7.7111110175217163
 31
0.0
  0
LINE
  5
B1
100
AcDbEntity
  8
G
 62
256
370
-1
 48
1.0
  6
BYLAYER
100
AcDbLine
 10
73.5394654565836845
 20
12.9198908021417083
 30
0.0
 11
77.707500160666541
 21
10.2077703501936412
 31
0.0
  0
LINE
  5
B2
100
AcDbEntity
  8
G
 62
256
370
-1
 48
1.0
  6
BYLAYER
100
AcDbLine
 10
73.5394654565836845
 20
12.9198908021417083
 30
0.0
 11
70.9048072228695219
 21
14.6461917154385901
 31
0.0
  0
ARC
  5
B3
100
AcDbEntity
  8
Layer3
 62
256
370
-1
 48
1.0
  6
BYLAYER
100
AcDbCircle
 10
87.0710438064725167
 20
14.2364503126375439
 30
0.0
 40
1.7791003799568601
100
AcDbArc
 50
182.9522962177958902
 51
270.0
  0
LINE
  5
B4
100
AcDbEntity
  8
G
 62
256
370
-1
 48
1.0
  6
BYLAYER
100
AcDbLine
 10
72.6623256070085972
 20
5.7857235078436133
 30
0.0
 11
28.8158198066475961
 21
5.7857235078436133
 31
0.0
  0
LINE
  5
B5
100
AcDbEntity
  8
G
 62
256
370
-1
 48
1.0
  6
BYLAYER
100
AcDbLine
 10
49.260941776722575
 20
6.8976612453166126
 30
0.0
 11
72.4600415541706298
 21
6.8976612453166126
 31
0.0
  0
ARC
  5
B6
100
AcDbEntity
  8
G
 62
256
370
-1
 48
1.0
  6
BYLAYER
100
AcDbCircle
 10
49.260941776722575
 20
68.2632006503035882
 30
0.0
 40
66.7162642483742019
100
AcDbArc
 50
290.5337952111498794
 51
297.1582324494650038
  0
ARC
  5
B7
100
AcDbEntity
  8
G
 62
256
370
-1
 48
1.0
  6
BYLAYER
100
AcDbCircle
 10
49.260941776722575
 20
68.2632006503035882
 30
0.0
 40
65.6043265109013021
100
AcDbArc
 50
290.7089824013420412
 51
296.6007354213778058
  0
ARC
  5
B8
100
AcDbEntity
  8
G
 62
256
370
-1
 48
1.0
  6
BYLAYER
100
AcDbCircle
 10
49.260941776722575
 20
68.2632006503035882
 30
0.0
 40
65.6043265109013021
100
AcDbArc
 50
243.3992645786221942
 51
249.2910175986577883
  0
ARC
  5
B9
100
AcDbEntity
  8
G
 62
256
370
-1
 48
1.0
  6
BYLAYER
100
AcDbCircle
 10
49.2682302454136334
 20
68.2632728739297363
 30
0.0
 40
65.6083942334172718
100
AcDbArc
 50
124.4932598463223314
 51
236.5303151392021732
  0
ARC
  5
BA
100
AcDbEntity
  8
G
 62
256
370
-1
 48
1.0
  6
BYLAYER
100
AcDbCircle
 10
49.260941776722575
 20
68.2632006503035882
 30
0.0
 40
66.7162642483743014
100
AcDbArc
 50
303.6017364949801163
 51
56.8827174263497639
  0
ARC
  5
BB
100
AcDbEntity
  8
G
 62
256
370
-1
 48
1.0
  6
BYLAYER
100
AcDbCircle
 10
49.260941776722575
 20
68.2632006503035882
 30
0.0
 40
65.6043265109013731
100
AcDbArc
 50
303.4644079041968894
 51
55.7071609216229433
  0
LINE
  5
BC
100
AcDbEntity
  8
OSI
 62
256
370
-1
 48
1.0
  6
BYLAYER
100
AcDbLine
 10
103.7831651533174409
 20
9.1215367202626112
 30
0.0
 11
96.1732454469815821
 21
9.1215367202626112
 31
0.0
  0
LINE
  5
BD
100
AcDbEntity
  8
OSI
 62
256
370
-1
 48
1.0
  6
BYLAYER
100
AcDbLine
 10
103.7831651533174409
 20
9.1215367202626112
 30
0.0
 11
107.3462003183758497
 21
9.1215367202626112
 31
0.0
  0
LINE
  5
BE
100
AcDbEntity
  8
G
 62
256
370
-1
 48
1.0
  6
BYLAYER
100
AcDbLine
 10
103.7831651533174409
 20
12.4573499326806996
 30
0.0
 11
102.6712274158435321
 21
12.4573499326806996
 31
0.0
  0
LINE
  5
BF
100
AcDbEntity
  8
G
 62
256
370
-1
 48
1.0
  6
BYLAYER
100
AcDbLine
 10
102.6712274158458058
 20
12.4573499326806996
 30
0.0
 11
102.6712274158458058
 21
5.7857235078436133
 31
0.0
  0
LINE
  5
C0
100
AcDbEntity
  8
G
 62
256
370
-1
 48
1.0
  6
BYLAYER
100
AcDbLine
 10
102.6712274158458058
 20
9.1215367202626112
 30
0.0
 11
102.6712274158458058
 21
10.2334744577356105
 31
0.0
  0
LINE
  5
C1
100
AcDbEntity
  8
G
 62
256
370
-1
 48
1.0
  6
BYLAYER
100
AcDbLine
 10
98.269933469276566
 20
10.233474457734701
 30
0.0
 11
98.269933469276566
 21
9.1215367202626112
 31
0.0
  0
LINE
  5
C2
100
AcDbEntity
  8
R
 62
256
370
-1
 48
1.0
  6
BYLAYER
100
AcDbLine
 10
97.7517448761327614
 20
9.6775055889995656
 30
0.0
 11
102.6712274158435321
 21
9.6775055889995656
 31
0.0
  0
LINE
  5
C3
100
AcDbEntity
  8
G
 62
256
370
-1
 48
1.0
  6
BYLAYER
100
AcDbLine
 10
98.269933469276566
 20
10.233474457734701
 30
0.0
 11
97.1579957318035667
 21
9.1215367202626112
 31
0.0
  0
LINE
  5
C4
100
AcDbEntity
  8
G
 62
256
370
-1
 48
1.0
  6
BYLAYER
100
AcDbLine
 10
103.7831651533174409
 20
11.9265955308067078
 30
0.0
 11
106.0070406282634394
 21
11.9265955308067078
 31
0.0
  0
LINE
  5
C5
100
AcDbEntity
  8
G
 62
256
370
-1
 48
1.0
  6
BYLAYER
100
AcDbLine
 10
106.0070406282634394
 20
11.9265955308067078
 30
0.0
 11
106.0070406282634394
 21
9.1215367202626112
 31
0.0
  0
LINE
  5
C6
100
AcDbEntity
  8
G
 62
256
370
-1
 48
1.0
  6
BYLAYER
100
AcDbLine
 10
106.0070406282634394
 20
10.5240661255345458
 30
0.0
 11
103.7831651533174409
 21
10.5240661255345458
 31
0.0
  0
LINE
  5
C7
100
AcDbEntity
  8
G
 62
256
370
-1
 48
1.0
  6
BYLAYER
100
AcDbLine
 10
98.269933469276566
 20
8.0095989827896119
 30
0.0
 11
98.269933469276566
 21
9.1215367202626112
 31
0.0
  0
LINE
  5
C8
100
AcDbEntity
  8
G
 62
256
370
-1
 48
1.0
  6
BYLAYER
100
AcDbLine
 10
98.269933469276566
 20
8.0095989827896119
 30
0.0
 11
97.1579957318035667
 21
9.1215367202626112
 31
0.0
  0
LINE
  5
C9
100
AcDbEntity
  8
G
 62
256
370
-1
 48
1.0
  6
BYLAYER
100
AcDbLine
 10
102.6712274158458058
 20
8.0095989827896119
 30
0.0
 11
98.2321531936854626
 21
8.0095989827896119
 31
0.0
  0
LINE
  5
CA
100
AcDbEntity
  8
R
 62
256
370
-1
 48
1.0
  6
BYLAYER
100
AcDbLine
 10
97.6761843249487356
 20
8.5655678515256568
 30
0.0
 11
102.6712274158435321
 21
8.5655678515256568
 31
0.0
  0
LINE
  5
CB
100
AcDbEntity
  8
G
 62
256
370
-1
 48
1.0
  6
BYLAYER
100
AcDbLine
 10
106.0070406282634394
 20
7.7190073149906766
 30
0.0
 11
103.7831651533174409
 21
7.7190073149906766
 31
0.0
  0
LINE
  5
CC
100
AcDbEntity
  8
G
 62
256
370
-1
 48
1.0
  6
BYLAYER
100
AcDbLine
 10
103.7831651533174409
 20
6.3164779097176051
 30
0.0
 11
106.0070406282634394
 21
6.3164779097176051
 31
0.0
  0
LINE
  5
CD
100
AcDbEntity
  8
G
 62
256
370
-1
 48
1.0
  6
BYLAYER
100
AcDbLine
 10
106.0070406282634394
 20
6.3164779097176051
 30
0.0
 11
106.0070406282634394
 21
9.1215367202626112
 31
0.0
  0
ARC
  5
CE
100
AcDbEntity
  8
0
 62
256
370
-1
 48
1.0
  6
BYLAYER
100
AcDbCircle
 10
49.2609417767216655
 20
68.2632006503035882
 30
0.0
 40
44.4775094989165396
100
AcDbArc
 50
270.0
 51
0.0
  0
ARC
  5
CF
100
AcDbEntity
  8
G
 62
256
370
-1
 48
1.0
  6
BYLAYER
100
AcDbCircle
 10
49.260941776722575
 20
68.2632006503035882
 30
0.0
 40
35.5820075991329574
100
AcDbArc
 50
270.0
 51
9.7748539092933342
  0
ARC
  5
D0
100
AcDbEntity
  8
G
 62
256
370
-1
 48
1.0
  6
BYLAYER
100
AcDbCircle
 10
49.260941776722575
 20
68.2632006503026787
 30
0.0
 40
34.4700698616598515
100
AcDbArc
 50
270.0
 51
8.9235234738309543
  0
ARC
  5
D1
100
AcDbEntity
  8
0
 62
256
370
-1
 48
1.0
  6
BYLAYER
100
AcDbCircle
 10
49.260941776722575
 20
68.2632006503015418
 30
0.0
 40
21.1268170119845493
100
AcDbArc
 50
270.0
 51
0.0
  0
ARC
  5
D2
100
AcDbEntity
  8
G
 62
256
370
-1
 48
1.0
  6
BYLAYER
100
AcDbCircle
 10
49.2609417767216655
 20
68.2632006503035882
 30
0.0
 40
11.1193773747291793
100
AcDbArc
 50
270.0
 51
0.0
  0
ARC
  5
D3
100
AcDbEntity
  8
0
 62
256
370
-1
 48
1.0
  6
BYLAYER
100
AcDbCircle
 10
51.1521589925616809
 20
66.5632267489716014
 30
0.0
 40
50.5964574993892029
100
AcDbArc
 50
267.8578734943017139
 51
8.2387634383189532
  0
LWPOLYLINE
  5
D4
100
AcDbEntity
  8
Layer0View0
 62
256
370
-1
 48
1.0
  6
BYLAYER
100
AcDbPolyline
 90
16
 70
0
 10
79.5927759232256449
 20
68.2610477654015995
 10
80.5716493275706398
 20
70.7888401115367287
 10
82.1886907995246929
 20
72.7332278540845891
 10
83.5949640626886321
 20
73.8145481844485403
 10
86.9364536435555237
 20
75.5010316050095298
 10
88.6720126534005431
 20
75.8104930097215401
 10
91.0108570374877672
 20
75.396726562137701
 10
92.8523878920777861
 20
74.8840498733907225
 10
95.3436152682515967
 20
74.4189907798806871
 10
98.5659764510755849
 20
73.8660609259186458
 10
98.8819280723246266
 20
73.8136255961505867
 10
99.4535943594605669
 20
73.8737157582565942
 10
101.2297198679175381
 20
73.8125339107066338
 10
102.5163677897076013
 20
72.7818664922165226
 10
103.7187312510404809
 20
70.9705396945137181
 10
105.1673438851034916
 20
68.2610477654015995
  0
ARC
  5
D5
100
AcDbEntity
  8
G
 62
256
370
-1
 48
1.0
  6
BYLAYER
100
AcDbCircle
 10
49.260941776722575
 20
68.2632006503035882
 30
0.0
 40
30.0223189117683198
100
AcDbArc
 50
0.0
 51
270.0
  0
LINE
  5
D6
100
AcDbEntity
  8
OSI
 62
256
370
-1
 48
1.0
  6
BYLAYER
100
AcDbLine
 10
67.5573020102056034
 20
57.6997921443105497
 30
0.0
 11
87.7795948998464155
 21
46.0244459008456488
 31
0.0
  0
LINE
  5
D7
100
AcDbEntity
  8
OSI
 62
256
370
-1
 48
1.0
  6
BYLAYER
100
AcDbLine
 10
67.5573020102056034
 20
57.6997921443105497
 30
0.0
 11
62.9192594458895655
 21
60.3775672673307326
 31
0.0
  0
LINE
  5
D8
100
AcDbEntity
  8
OSI
 62
256
370
-1
 48
1.0
  6
BYLAYER
100
AcDbLine
 10
87.7795948998464155
 20
46.0244459008456488
 30
0.0
 11
90.5212820802144051
 21
44.4415320692255591
 31
0.0
  0
LINE
  5
D9
100
AcDbEntity
  8
G
 62
256
370
-1
 48
1.0
  6
BYLAYER
100
AcDbLine
 10
96.0389211444476132
 20
102.2493920351116685
 30
0.0
 11
87.0431558814225355
 21
95.7135859995735245
 31
0.0
  0
LINE
  5
DA
100
AcDbEntity
  8
G
 62
256
370
-1
 48
1.0
  6
BYLAYER
100
AcDbLine
 10
87.0431558814225355
 20
95.7135859995735245
 30
0.0
 11
88.1216844591967856
 21
94.2291187644116235
 31
0.0
  0
LINE
  5
DB
100
AcDbEntity
  8
G
 62
256
370
-1
 48
1.0
  6
BYLAYER
100
AcDbLine
 10
87.0431558814225355
 20
95.7135859995735245
 30
0.0
 11
86.5181421945205784
 21
93.1576660781536248
 31
0.0
  0
LINE
  5
DC
100
AcDbEntity
  8
R
 62
256
370
-1
 48
1.0
  6
BYLAYER
100
AcDbLine
 10
87.5824201703094332
 20
94.971352381992574
 30
0.0
 11
86.7806490379716706
 21
94.4356260388635746
 31
0.0
  0
LINE
  5
DD
100
AcDbEntity
  8
R
 62
256
370
-1
 48
1.0
  6
BYLAYER
100
AcDbLine
 10
87.5824201703094332
 20
94.971352381992574
 30
0.0
 11
96.8217899698388464
 21
101.1449019098736244
 31
0.0
  0
LINE
  5
DE
100
AcDbEntity
  8
G
 62
256
370
-1
 48
1.0
  6
BYLAYER
100
AcDbLine
 10
98.5612460887027737
 20
98.4744659882235283
 30
0.0
 11
89.0804183363998163
 21
92.6646072693915812
 31
0.0
  0
LINE
  5
DF
100
AcDbEntity
  8
R
 62
256
370
-1
 48
1.0
  6
BYLAYER
100
AcDbLine
 10
88.6010513977985283
 20
93.446863016901716
 30
0.0
 11
97.8404211973274869
 21
99.620412544782539
 31
0.0
  0
LINE
  5
E0
100
AcDbEntity
  8
G
 62
256
370
-1
 48
1.0
  6
BYLAYER
100
AcDbLine
 10
89.0804183364007258
 20
92.6646072693915812
 30
0.0
 11
86.5181421945205784
 21
93.1576660781536248
 31
0.0
  0
LINE
  5
E1
100
AcDbEntity
  8
G
 62
256
370
-1
 48
1.0
  6
BYLAYER
100
AcDbLine
 10
89.0804183364007258
 20
92.6646072693915812
 30
0.0
 11
88.1216844591967856
 21
94.2291187644116235
 31
0.0
  0
LINE
  5
E2
100
AcDbEntity
  8
OSI
 62
256
370
-1
 48
1.0
  6
BYLAYER
100
AcDbLine
 10
86.5181421945205784
 20
93.1576660781536248
 30
0.0
 11
97.3371486297428419
 21
100.3866950616795748
 31
0.0
  0
LINE
  5
E3
100
AcDbEntity
  8
R
 62
256
370
-1
 48
1.0
  6
BYLAYER
100
AcDbLine
 10
88.6010513977985283
 20
93.446863016901716
 30
0.0
 11
87.7992802654594016
 21
92.9111366737727167
 31
0.0
  0
LINE
  5
E4
100
AcDbEntity
  8
OSI
 62
256
370
-1
 48
1.0
  6
BYLAYER
100
AcDbLine
 10
86.5181421945205784
 20
93.1576660781536248
 30
0.0
 11
84.3430844974695901
 21
91.7043389887426201
 31
0.0
  0
LINE
  5
E5
100
AcDbEntity
  8
OSI
 62
256
370
-1
 48
1.0
  6
BYLAYER
100
AcDbLine
 10
97.3371486297428419
 20
100.3866950616795748
 30
0.0
 11
100.2553783423686582
 21
102.3365938161987287
 31
0.0
  0
LWPOLYLINE
  5
E6
100
AcDbEntity
  8
Layer0View0
 62
256
370
-1
 48
1.0
  6
BYLAYER
100
AcDbPolyline
 90
17
 70
0
 10
91.5491724487424108
 20
107.6960055873355486
 10
89.1901532727397353
 20
106.546249056504621
 10
87.0384538105085994
 20
105.0387449664456199
 10
85.0822909155765501
 20
103.6222559254465523
 10
82.7937462539796343
 20
101.7685912193517197
 10
82.619067907286535
 20
101.621321012247563
 10
82.3388942666576895
 20
101.0513583901965831
 10
81.5073105009255414
 20
99.2091894702696209
 10
80.4094720155267169
 20
95.7042375246617212
 10
80.4886605726826474
 20
92.2613213744036784
 10
81.7108757878656888
 20
88.0735926276456667
 10
83.3188147530515835
 20
86.2513528330966892
 10
85.2761321922666866
 20
85.8326723889856567
 10
88.5735892389207038
 20
86.1226422008867303
 10
90.442551374881532
 20
86.2541962609027451
 10
97.8467922832846853
 20
86.2541962609027451
 10
104.2115071560847355
 20
86.2541962609027451
  0
ARC
  5
E7
100
AcDbEntity
  8
G
 62
256
370
-1
 48
1.0
  6
BYLAYER
100
AcDbCircle
 10
49.260941776722575
 20
68.2632006503035882
 30
0.0
 40
52.2610736612265114
100
AcDbArc
 50
20.1361610055824194
 51
31.5000000000063984
  0
ARC
  5
E8
100
AcDbEntity
  8
OSI
 62
256
370
-1
 48
1.0
  6
BYLAYER
100
AcDbCircle
 10
49.260941776722575
 20
68.2632006503035882
 30
0.0
 40
52.2610736612265114
100
AcDbArc
 50
0.0
 51
6.0966369326260779
  0
ARC
  5
E9
100
AcDbEntity
  8
G
 62
256
370
-1
 48
1.0
  6
BYLAYER
100
AcDbCircle
 10
49.260941776722575
 20
68.2632006503035882
 30
0.0
 40
52.2610736612265114
100
AcDbArc
 50
35.999999999983153
 51
44.3255815033268519
  0
ARC
  5
EA
100
AcDbEntity
  8
G
 62
256
370
-1
 48
1.0
  6
BYLAYER
100
AcDbCircle
 10
49.260941776722575
 20
68.2632006503035882
 30
0.0
 40
57.8207623485909892
100
AcDbArc
 50
23.4999999999765201
 51
28.0000000000165414
  0
LINE
  5
EB
100
AcDbEntity
  8
G
 62
256
370
-1
 48
1.0
  6
BYLAYER
100
AcDbLine
 10
39.1719958206726915
 20
5.7857235078436133
 30
0.0
 11
28.8158198066475961
 21
5.7857235078436133
 31
0.0
  0
ARC
  5
EC
100
AcDbEntity
  8
G
 62
256
370
-1
 48
1.0
  6
BYLAYER
100
AcDbCircle
 10
49.260941776722575
 20
68.2632006503026787
 30
0.0
 40
8.8955018997832678
100
AcDbArc
 50
0.0
 51
270.0
  0
ARC
  5
ED
100
AcDbEntity
  8
G
 62
256
370
-1
 48
1.0
  6
BYLAYER
100
AcDbCircle
 10
49.260941776722575
 20
68.2632006503026787
 30
0.0
 40
10.0074396372558994
100
AcDbArc
 50
12.8395884069012478
 51
270.0
  0
ARC
  5
EE
100
AcDbEntity
  8
G
 62
256
370
-1
 48
1.0
  6
BYLAYER
100
AcDbCircle
 10
49.2609417767216655
 20
68.2632006503026787
 30
0.0
 40
7.843484851000996
100
AcDbArc
 50
0.0
 51
270.0
  0
LINE
  5
EF
100
AcDbEntity
  8
G
 62
256
370
-1
 48
1.0
  6
BYLAYER
100
AcDbLine
 10
58.156443676504523
 20
70.4870761252486773
 30
0.0
 11
59.8781651650335789
 21
70.4870761252486773
 31
0.0
  0
LINE
  5
F0
100
AcDbEntity
  8
G
 62
256
370
-1
 48
1.0
  6
BYLAYER
100
AcDbLine
 10
59.8781651650335789
 20
70.4870761252486773
 30
0.0
 11
59.8781651650335789
 21
68.2632006503035882
 31
0.0
  0
LINE
  5
F1
100
AcDbEntity
  8
G
 62
256
370
-1
 48
1.0
  6
BYLAYER
100
AcDbLine
 10
58.156443676504523
 20
70.4870761252486773
 30
0.0
 11
57.873974455225607
 21
70.4870761252486773
 31
0.0
  0
ARC
  5
F2
100
AcDbEntity
  8
G
 62
256
370
-1
 48
1.0
  6
BYLAYER
100
AcDbCircle
 10
48.357706037515527
 20
70.6332520463315632
 30
0.0
 40
60.3566292660350783
100
AcDbArc
 50
287.4231361556621209
 51
291.9356252481027241
  0
LINE
  5
F3
100
AcDbEntity
  8
G
 62
256
370
-1
 48
1.0
  6
BYLAYER
100
AcDbLine
 10
92.6637877785897217
 20
5.7857235078436133
 30
0.0
 11
89.1543301101964971
 21
5.7857235078436133
 31
0.0
  0
LINE
  5
F4
100
AcDbEntity
  8
G
 62
256
370
-1
 48
1.0
  6
BYLAYER
100
AcDbLine
 10
102.6712274158458058
 20
10.233474457734701
 30
0.0
 11
98.269933469276566
 21
10.233474457734701
 31
0.0
  0
LINE
  5
F5
100
AcDbEntity
  8
G
 62
256
370
-1
 48
1.0
  6
BYLAYER
100
AcDbLine
 10
64.1917806752605884
 20
5.9761492653606183
 30
0.0
 11
64.2061246771577316
 21
5.9454579564267078
 31
0.0
  0
LWPOLYLINE
  5
F6
100
AcDbEntity
  8
Layer0View0
 62
256
370
-1
 48
1.0
  6
BYLAYER
100
AcDbPolyline
 90
3
 70
0
 10
70.4318334040256104
 20
121.0976206997256668
 10
69.8047637105967169
 20
121.6028435334267215
 10
69.1221182364495235
 20
121.9143243903936309
  0
LWPOLYLINE
  5
F7
100
AcDbEntity
  8
Layer0View0
 62
256
370
-1
 48
1.0
  6
BYLAYER
100
AcDbPolyline
 90
3
 70
0
 10
84.4443810165387276
 20
113.14801517993169
 10
85.1954516718096784
 20
112.8575683123285671
 10
85.8065247438096321
 20
112.4221204184225371
  0
LINE
  5
F8
100
AcDbEntity
  8
G
 62
256
370
-1
 48
1.0
  6
BYLAYER
100
AcDbLine
 10
13.4455690759866684
 20
116.9539930103146617
 30
0.0
 11
13.1476262571986808
 21
121.9177960601007271
 31
0.0
  0
LINE
  5
F9
100
AcDbEntity
  8
0
 62
256
370
-1
 48
1.0
  6
BYLAYER
100
AcDbLine
 10
19.2233670444556992
 20
120.289806222734569
 30
0.0
 11
13.9028415847665201
 21
117.2179994163525407
 31
0.0
  0
LINE
  5
FA
100
AcDbEntity
  8
0
 62
256
370
-1
 48
1.0
  6
BYLAYER
100
AcDbLine
 10
22.4350355913745716
 20
114.7270331223996891
 30
0.0
 11
14.8604996211456637
 21
127.8465142665945677
 31
0.0
  0
LINE
  5
FB
100
AcDbEntity
  8
0
 62
256
370
-1
 48
1.0
  6
BYLAYER
100
AcDbLine
 10
19.1396834192817096
 20
120.2406447774717435
 30
0.0
 11
24.4131883163065595
 21
123.3924909545546598
 31
0.0
  0
LINE
  5
FC
100
AcDbEntity
  8
G
 62
256
370
-1
 48
1.0
  6
BYLAYER
100
AcDbLine
 10
13.4455690759866684
 20
116.9539930103146617
 30
0.0
 11
13.634614416285558
 21
113.8044496162606265
 31
0.0
  0
LINE
  5
FD
100
AcDbEntity
  8
G
 62
256
370
-1
 48
1.0
  6
BYLAYER
100
AcDbLine
 10
24.8664196432855533
 20
123.6633763435256697
 30
0.0
 11
20.6756865245806694
 21
126.3402899708437417
 31
0.0
  0
LINE
  5
FE
100
AcDbEntity
  8
G
 62
256
370
-1
 48
1.0
  6
BYLAYER
100
AcDbLine
 10
24.8664196432855533
 20
123.6633763435256697
 30
0.0
 11
27.5254485527495945
 21
121.9648690605386037
 31
0.0
  0
LINE
  5
FF
100
AcDbEntity
  8
OSI
 62
256
370
-1
 48
1.0
  6
BYLAYER
100
AcDbLine
 10
24.4131883163045131
 20
123.3924909545546598
 30
0.0
 11
25.8592976923905553
 21
124.2567955105675992
 31
0.0
  0
ARC
  5
100
100
AcDbEntity
  8
G
 62
256
370
-1
 48
1.0
  6
BYLAYER
100
AcDbCircle
 10
17.3905162108646891
 20
123.1358854206696378
 30
0.0
 40
10.8710880437293902
100
AcDbArc
 50
300.8657386716317887
 51
348.8963658972984376
  0
ARC
  5
101
100
AcDbEntity
  8
G
 62
256
370
-1
 48
1.0
  6
BYLAYER
100
AcDbCircle
 10
17.5321454051306773
 20
123.2190880289076631
 30
0.0
 40
10.8710880437293902
100
AcDbArc
 50
251.9693727743182876
 51
299.9999999999973284
  0
LINE
  5
102
100
AcDbEntity
  8
OSI
 62
256
370
-1
 48
1.0
  6
BYLAYER
100
AcDbLine
 10
22.4350355913745716
 20
114.7270331223996891
 30
0.0
 11
23.7545112870536741
 21
112.4416341781316078
 31
0.0
  0
LINE
  5
103
100
AcDbEntity
  8
G
 62
256
370
-1
 48
1.0
  6
BYLAYER
100
AcDbLine
 10
16.9994915695106101
 20
124.1416715350467257
 30
0.0
 11
13.1476262571986808
 21
121.9177960601007271
 31
0.0
  0
LINE
  5
104
100
AcDbEntity
  8
G
 62
256
370
-1
 48
1.0
  6
BYLAYER
100
AcDbLine
 10
16.8578623752446219
 20
124.0584689268087004
 30
0.0
 11
20.6756865245806694
 21
126.3402899708437417
 31
0.0
  0
LWPOLYLINE
  5
105
100
AcDbEntity
  8
Layer0View0
 62
256
370
-1
 48
1.0
  6
BYLAYER
100
AcDbPolyline
 90
3
 70
0
 10
14.1672682519056252
 20
112.8818661101215639
 10
13.4210452207116759
 20
112.5538717097597328
 10
12.8116824706116859
 20
112.1160395074637108
  0
LWPOLYLINE
  5
106
100
AcDbEntity
  8
Layer0View0
 62
256
370
-1
 48
1.0
  6
BYLAYER
100
AcDbPolyline
 90
3
 70
0
 10
28.0581023883685248
 20
121.0422855543995411
 10
28.6546831860305247
 20
121.5699335964745842
 10
29.336109262520722
 20
121.8840831164566225
  0
LINE
  5
107
100
AcDbEntity
  8
G
 62
256
370
-1
 48
1.0
  6
BYLAYER
100
AcDbLine
 10
-5.3279819235863215
 20
49.1503533076677286
 30
0.0
 11
-3.6456270882104036
 21
44.9334976080035631
 31
0.0
  0
ARC
  5
108
100
AcDbEntity
  8
G
 62
256
370
-1
 48
1.0
  6
BYLAYER
100
AcDbCircle
 10
49.1762677127776442
 20
68.4513203857525241
 30
0.0
 40
57.8207623485909892
100
AcDbArc
 50
204.0000000000035811
 51
207.4999999999943725
  0
ARC
  5
109
100
AcDbEntity
  8
G
 62
256
370
-1
 48
1.0
  6
BYLAYER
100
AcDbCircle
 10
49.260941776722575
 20
68.2632006503035882
 30
0.0
 40
57.8207623485909892
100
AcDbArc
 50
212.0000000000050022
 51
215.4999999999760973
  0
ARC
  5
10A
100
AcDbEntity
  8
G
 62
256
370
-1
 48
1.0
  6
BYLAYER
100
AcDbCircle
 10
68.9019470697285215
 20
56.9084364039845241
 30
0.0
 40
0.5806080000000002
100
AcDbArc
 50
59.9999999995825917
 51
240.0000000000026716
  0
LINE
  5
10B
100
AcDbEntity
  8
G
 62
256
370
-1
 48
1.0
  6
BYLAYER
100
AcDbLine
 10
78.3982457484075894
 20
52.6921105047877063
 30
0.0
 11
69.1922510697315829
 21
57.411257681622601
 31
0.0
  0
LINE
  5
10C
100
AcDbEntity
  8
G
 62
256
370
-1
 48
1.0
  6
BYLAYER
100
AcDbLine
 10
77.3015417484075442
 20
50.7925634559226182
 30
0.0
 11
68.6116430697295527
 21
56.4056151263446282
 31
0.0
  0
ARC
  5
10D
100
AcDbEntity
  8
G
 62
256
370
-1
 48
1.0
  6
BYLAYER
100
AcDbCircle
 10
77.8498937484075668
 20
51.7423369803545938
 30
0.0
 40
1.096703999999999
100
AcDbArc
 50
234.2808753398915087
 51
321.5434806647011214
  0
LINE
  5
10E
100
AcDbEntity
  8
G
 62
256
370
-1
 48
1.0
  6
BYLAYER
100
AcDbLine
 10
78.8699810960076775
 20
51.3396193784517436
 30
0.0
 11
79.1596524270846658
 21
51.1723775574776027
 31
0.0
  0
LINE
  5
10F
100
AcDbEntity
  8
G
 62
256
370
-1
 48
1.0
  6
BYLAYER
100
AcDbLine
 10
79.1596524270846658
 20
51.1723775574776027
 30
0.0
 11
78.9983724270846324
 21
50.8930324032326098
 31
0.0
  0
LINE
  5
110
100
AcDbEntity
  8
G
 62
256
370
-1
 48
1.0
  6
BYLAYER
100
AcDbLine
 10
78.9983724270846324
 20
50.8930324032326098
 30
0.0
 11
78.7087010960085536
 21
51.0602742242065233
 31
0.0
  0
ARC
  5
111
100
AcDbEntity
  8
G
 62
256
370
-1
 48
1.0
  6
BYLAYER
100
AcDbCircle
 10
77.8498937484075668
 20
51.7423369803545938
 30
0.0
 40
1.096703999999999
100
AcDbArc
 50
338.4565193352659094
 51
65.7191246601496317
  0
LINE
  5
112
100
AcDbEntity
  8
G
 62
256
370
-1
 48
1.0
  6
BYLAYER
100
AcDbLine
 10
89.0432874511725458
 20
45.2988243966897244
 30
0.0
 11
90.2528874511726826
 21
47.3939130535236472
 31
0.0
  0
LINE
  5
113
100
AcDbEntity
  8
G
 62
256
370
-1
 48
1.0
  6
BYLAYER
100
AcDbLine
 10
89.0432874511725458
 20
45.2988243966897244
 30
0.0
 11
87.8336874511724091
 21
43.2037357398535278
 31
0.0
  0
LINE
  5
114
100
AcDbEntity
  8
G
 62
256
370
-1
 48
1.0
  6
BYLAYER
100
AcDbLine
 10
79.7061929642375162
 20
49.7584478980206768
 30
0.0
 11
80.2648832727265926
 21
49.43588789802061
 31
0.0
  0
LINE
  5
115
100
AcDbEntity
  8
G
 62
256
370
-1
 48
1.0
  6
BYLAYER
100
AcDbLine
 10
80.5125929642385927
 20
51.1551736692435952
 30
0.0
 11
81.0712832727276691
 21
50.8326136692446653
 31
0.0
  0
LINE
  5
116
100
AcDbEntity
  8
G
 62
256
370
-1
 48
1.0
  6
BYLAYER
100
AcDbLine
 10
87.8336874511724091
 20
43.2037357398535278
 30
0.0
 11
80.3023084269725587
 21
48.8555901666536556
 31
0.0
  0
LINE
  5
117
100
AcDbEntity
  8
G
 62
256
370
-1
 48
1.0
  6
BYLAYER
100
AcDbLine
 10
90.2528874511726826
 20
47.3939130535236472
 30
0.0
 11
81.5925484269725985
 21
51.0903514006115529
 31
0.0
  0
LINE
  5
118
100
AcDbEntity
  8
G
 62
256
370
-1
 48
1.0
  6
BYLAYER
100
AcDbLine
 10
81.5925484269725985
 20
51.0903514006115529
 30
0.0
 11
81.0712832727276691
 21
50.8326136692446653
 31
0.0
  0
LINE
  5
119
100
AcDbEntity
  8
G
 62
256
370
-1
 48
1.0
  6
BYLAYER
100
AcDbLine
 10
80.3023084269725587
 20
48.8555901666536556
 30
0.0
 11
80.2648832727277295
 21
49.43588789802061
 31
0.0
  0
LINE
  5
11A
100
AcDbEntity
  8
G
 62
256
370
-1
 48
1.0
  6
BYLAYER
100
AcDbLine
 10
1.9808335069576515
 20
35.1940263386015886
 30
0.0
 11
-3.2393921608922938
 21
32.5748354524976094
 31
0.0
  0
LINE
  5
11B
100
AcDbEntity
  8
G
 62
256
370
-1
 48
1.0
  6
BYLAYER
100
AcDbLine
 10
-0.0056566177004242
 20
38.1670189066426246
 30
0.0
 11
-4.3284361687294677
 21
34.1289489493635756
 31
0.0
  0
ARC
  5
11C
100
AcDbEntity
  8
G
 62
256
370
-1
 48
1.0
  6
BYLAYER
100
AcDbCircle
 10
-3.5599200371414099
 20
33.3062475466106207
 30
0.0
 40
1.125812880811355
100
AcDbArc
 50
133.0496769904385417
 51
205.3995135835311032
  0
ARC
  5
11D
100
AcDbEntity
  8
G
 62
256
370
-1
 48
1.0
  6
BYLAYER
100
AcDbCircle
 10
-3.7442704172713093
 20
33.5810921736376713
 30
0.0
 40
1.125812880811355
100
AcDbArc
 50
222.3034773126275923
 51
296.6447063057635205
  0
LINE
  5
11E
100
AcDbEntity
  8
G
 62
256
370
-1
 48
1.0
  6
BYLAYER
100
AcDbLine
 10
-3.6611144583632722
 20
45.0176167301856367
 30
0.0
 11
-8.5038157338053679
 21
41.6204596270297316
 31
0.0
  0
ARC
  5
11F
100
AcDbEntity
  8
G
 62
256
370
-1
 48
1.0
  6
BYLAYER
100
AcDbCircle
 10
-7.8572766537674852
 20
40.6988079246057168
 30
0.0
 40
1.125812880811355
100
AcDbArc
 50
125.0496769903539871
 51
197.3995135835313022
  0
LINE
  5
120
100
AcDbEntity
  8
G
 62
256
370
-1
 48
1.0
  6
BYLAYER
100
AcDbLine
 10
-2.1077173138712624
 20
41.7970911307736515
 30
0.0
 11
-7.6416610219944232
 21
39.9299050242325393
 31
0.0
  0
ARC
  5
121
100
AcDbEntity
  8
G
 62
256
370
-1
 48
1.0
  6
BYLAYER
100
AcDbCircle
 10
-8.0015819696454855
 20
40.9966343966805198
 30
0.0
 40
1.125812880811355
100
AcDbArc
 50
214.3034773126700259
 51
288.644706305761872
  0
LINE
  5
122
100
AcDbEntity
  8
G
 62
256
370
-1
 48
1.0
  6
BYLAYER
100
AcDbLine
 10
-5.5888207189543664
 20
49.9671870752026734
 30
0.0
 11
-11.0050679856683473
 21
48.9491891501816099
 31
0.0
  0
ARC
  5
123
100
AcDbEntity
  8
G
 62
256
370
-1
 48
1.0
  6
BYLAYER
100
AcDbCircle
 10
-11.2130261727493235
 20
50.0556285000907337
 30
0.0
 40
1.125812880811355
100
AcDbArc
 50
206.3034773126312871
 51
280.6447063057707965
  0
LINE
  5
124
100
AcDbEntity
  8
G
 62
256
370
-1
 48
1.0
  6
BYLAYER
100
AcDbLine
 10
-6.5933030551564116
 20
53.311816338711651
 30
0.0
 11
-11.6235525406773377
 21
50.743280136546673
 31
0.0
  0
ARC
  5
125
100
AcDbEntity
  8
G
 62
256
370
-1
 48
1.0
  6
BYLAYER
100
AcDbCircle
 10
-11.1115746599523391
 20
49.7406170364736226
 30
0.0
 40
1.125812880811355
100
AcDbArc
 50
117.049676990379794
 51
189.3995135835201893
  0
ARC
  5
126
100
AcDbEntity
  8
G
 62
256
370
-1
 48
1.0
  6
BYLAYER
100
AcDbCircle
 10
-13.4690883134094292
 20
58.4261514832646753
 30
0.0
 40
1.125812880811355
100
AcDbArc
 50
109.0496769904096794
 51
181.3995135835344001
  0
LINE
  5
127
100
AcDbEntity
  8
G
 62
256
370
-1
 48
1.0
  6
BYLAYER
100
AcDbLine
 10
-7.6395292725574109
 20
57.8970957270846611
 30
0.0
 11
-13.4737636278803166
 21
57.6276028546267298
 31
0.0
  0
ARC
  5
128
100
AcDbEntity
  8
G
 62
256
370
-1
 48
1.0
  6
BYLAYER
100
AcDbCircle
 10
-13.5257113848292647
 20
58.7522165986065374
 30
0.0
 40
1.125812880811355
100
AcDbArc
 50
198.3034773126420021
 51
272.6447063057436253
  0
LINE
  5
129
100
AcDbEntity
  8
G
 62
256
370
-1
 48
1.0
  6
BYLAYER
100
AcDbLine
 10
-8.2450532855764322
 20
61.4210379080307121
 30
0.0
 11
-13.8365399277374763
 21
59.4903102842577027
 31
0.0
  0
LINE
  5
12A
100
AcDbEntity
  8
G
 62
256
370
-1
 48
1.0
  6
BYLAYER
100
AcDbLine
 10
-8.3873629161003009
 20
66.4122202528317302
 30
0.0
 11
-14.2023250624783941
 21
66.9573185534395634
 31
0.0
  0
ARC
  5
12B
100
AcDbEntity
  8
G
 62
256
370
-1
 48
1.0
  6
BYLAYER
100
AcDbCircle
 10
-14.0972512852943055
 20
68.0782173641937334
 30
0.0
 40
1.125812880811355
100
AcDbArc
 50
190.3034773126639152
 51
264.6447063057399873
  0
ARC
  5
12C
100
AcDbEntity
  8
G
 62
256
370
-1
 48
1.0
  6
BYLAYER
100
AcDbCircle
 10
-14.0865587589323695
 20
67.7474450837055429
 30
0.0
 40
1.125812880811355
100
AcDbArc
 50
101.0496769903949996
 51
173.3995135835521921
  0
LINE
  5
12D
100
AcDbEntity
  8
G
 62
256
370
-1
 48
1.0
  6
BYLAYER
100
AcDbLine
 10
-8.4965560501243544
 20
69.9861403253105436
 30
0.0
 11
-14.3023320791612605
 21
68.8523869450175425
 31
0.0
  0
ARC
  5
12E
100
AcDbEntity
  8
G
 62
256
370
-1
 48
1.0
  6
BYLAYER
100
AcDbCircle
 10
-13.7649822395753745
 20
77.0723892985336079
 30
0.0
 40
1.125812880811355
100
AcDbArc
 50
182.3034773126232153
 51
256.6447063057595983
  0
LINE
  5
12F
100
AcDbEntity
  8
G
 62
256
370
-1
 48
1.0
  6
BYLAYER
100
AcDbLine
 10
-8.3425240956623838
 20
74.6279426860596686
 30
0.0
 11
-14.0250324093374275
 21
75.9770224413546202
 31
0.0
  0
ARC
  5
130
100
AcDbEntity
  8
G
 62
256
370
-1
 48
1.0
  6
BYLAYER
100
AcDbCircle
 10
-13.8004283761313218
 20
76.7433479590915795
 30
0.0
 40
1.125812880811355
100
AcDbArc
 50
93.0496769903982113
 51
165.3995135835180008
  0
LINE
  5
131
100
AcDbEntity
  8
G
 62
256
370
-1
 48
1.0
  6
BYLAYER
100
AcDbLine
 10
-7.9532610305393519
 20
78.182278361135559
 30
0.0
 11
-13.8603236200194715
 21
77.8675664442446305
 31
0.0
  0
ARC
  5
132
100
AcDbEntity
  8
G
 62
256
370
-1
 48
1.0
  6
BYLAYER
100
AcDbCircle
 10
104.3779506831274375
 20
100.0359684791155814
 30
0.0
 40
1.125812880811355
100
AcDbArc
 50
309.0496769903521113
 51
21.3995135835180612
  0
ARC
  5
133
100
AcDbEntity
  8
G
 62
256
370
-1
 48
1.0
  6
BYLAYER
100
AcDbCircle
 10
104.5426798029898237
 20
99.7489337273357251
 30
0.0
 40
1.125812880811355
100
AcDbArc
 50
38.3034773126573427
 51
112.6447063058022025
  0
LINE
  5
134
100
AcDbEntity
  8
G
 62
256
370
-1
 48
1.0
  6
BYLAYER
100
AcDbLine
 10
98.7190093444478407
 20
98.5392916505045378
 30
0.0
 11
104.1092243252164735
 21
100.7879577845105814
 31
0.0
  0
LINE
  5
135
100
AcDbEntity
  8
G
 62
256
370
-1
 48
1.0
  6
BYLAYER
100
AcDbLine
 10
100.4932750009875235
 20
95.4349705967147202
 30
0.0
 11
105.0872059992448158
 21
99.1616621602777286
 31
0.0
  0
LINE
  5
136
100
AcDbEntity
  8
G
 62
256
370
-1
 48
1.0
  6
BYLAYER
100
AcDbLine
 10
102.3678365324617516
 20
91.4822862427165546
 30
0.0
 11
108.0185481504627205
 21
92.9588955787696705
 31
0.0
  0
ARC
  5
137
100
AcDbEntity
  8
G
 62
256
370
-1
 48
1.0
  6
BYLAYER
100
AcDbCircle
 10
108.3031810693128136
 20
91.8696578893245714
 30
0.0
 40
1.125812880811355
100
AcDbArc
 50
30.3034773126052812
 51
104.6447063057313898
  0
ARC
  5
138
100
AcDbEntity
  8
G
 62
256
370
-1
 48
1.0
  6
BYLAYER
100
AcDbCircle
 10
108.1800025984116473
 20
92.1768251010596487
 30
0.0
 40
1.125812880811355
100
AcDbArc
 50
301.0496769903933227
 51
13.3995135835345298
  0
LINE
  5
139
100
AcDbEntity
  8
G
 62
256
370
-1
 48
1.0
  6
BYLAYER
100
AcDbLine
 10
103.6927971701666138
 20
88.1612461746776717
 30
0.0
 11
108.760675568964416
 21
91.2123182094985623
 31
0.0
  0
LINE
  5
13A
100
AcDbEntity
  8
G
 62
256
370
-1
 48
1.0
  6
BYLAYER
100
AcDbLine
 10
104.9911631416275668
 20
83.5888020629777202
 30
0.0
 11
110.792386722806441
 21
84.2646140799677141
 31
0.0
  0
ARC
  5
13B
100
AcDbEntity
  8
G
 62
256
370
-1
 48
1.0
  6
BYLAYER
100
AcDbCircle
 10
110.9226570267337593
 20
83.1463635308887206
 30
0.0
 40
1.125812880811355
100
AcDbArc
 50
22.3034773126272974
 51
96.644706305792397
  0
LINE
  5
13C
100
AcDbEntity
  8
G
 62
256
370
-1
 48
1.0
  6
BYLAYER
100
AcDbLine
 10
105.8410299088045576
 20
80.1156832479875902
 30
0.0
 11
111.284215219737689
 21
82.4317501074526717
 31
0.0
  0
ARC
  5
13D
100
AcDbEntity
  8
G
 62
256
370
-1
 48
1.0
  6
BYLAYER
100
AcDbCircle
 10
110.8434267336147059
 20
83.4676845422015958
 30
0.0
 40
1.125812880811355
100
AcDbArc
 50
293.0496769903879226
 51
5.3995135835081509
  0
LINE
  5
13E
100
AcDbEntity
  8
G
 62
256
370
-1
 48
1.0
  6
BYLAYER
100
AcDbLine
 10
106.2197963931075719
 20
76.102962418931611
 30
0.0
 11
112.0586177192485593
 21
75.9648232046736211
 31
0.0
  0
ARC
  5
13F
100
AcDbEntity
  8
G
 62
256
370
-1
 48
1.0
  6
BYLAYER
100
AcDbCircle
 10
112.031989844968848
 20
74.8393252709076933
 30
0.0
 40
1.125812880811355
100
AcDbArc
 50
14.3034773126728201
 51
88.6447063057485138
  0
ARC
  5
140
100
AcDbEntity
  8
G
 62
256
370
-1
 48
1.0
  6
BYLAYER
100
AcDbCircle
 10
111.9982498571635006
 20
75.1685459338107194
 30
0.0
 40
1.125812880811355
100
AcDbArc
 50
285.0496769904131042
 51
357.399513583537896
  0
LINE
  5
141
100
AcDbEntity
  8
G
 62
256
370
-1
 48
1.0
  6
BYLAYER
100
AcDbLine
 10
106.5780275998417892
 20
72.5453651641105353
 30
0.0
 11
112.2905744123645491
 21
74.0813472412855845
 31
0.0
  0
ARC
  5
142
100
AcDbEntity
  8
G
 62
7
420
16777215
370
-1
 48
1.0
  6
BYLAYER
100
AcDbCircle
 10
49.260941776722575
 20
68.2632006503035882
 30
0.0
 40
66.7162642483743724
100
AcDbArc
 50
123.1172825736502148
 51
236.398263505210906
  0
LINE
  5
143
100
AcDbEntity
  8
G
 62
256
370
-1
 48
1.0
  6
BYLAYER
100
AcDbLine
 10
19.1928821003555186
 20
20.0363810049336735
 30
0.0
 11
15.9672821003555327
 21
18.1740799766355394
 31
0.0
  0
LINE
  5
144
100
AcDbEntity
  8
G
 62
256
370
-1
 48
1.0
  6
BYLAYER
100
AcDbLine
 10
15.9672821003555327
 20
18.1740799766355394
 30
0.0
 11
15.9672821003555327
 21
14.4494779200397261
 31
0.0
  0
LINE
  5
145
100
AcDbEntity
  8
G
 62
256
370
-1
 48
1.0
  6
BYLAYER
100
AcDbLine
 10
15.9672821003555327
 20
14.4494779200397261
 30
0.0
 11
19.1928821003555186
 21
12.587176891741592
 31
0.0
  0
LINE
  5
146
100
AcDbEntity
  8
G
 62
256
370
-1
 48
1.0
  6
BYLAYER
100
AcDbLine
 10
19.1928821003555186
 20
12.587176891741592
 30
0.0
 11
22.4184821003545949
 21
14.4494779200397261
 31
0.0
  0
LINE
  5
147
100
AcDbEntity
  8
G
 62
256
370
-1
 48
1.0
  6
BYLAYER
100
AcDbLine
 10
22.4184821003545949
 20
14.4494779200397261
 30
0.0
 11
22.4184821003545949
 21
18.1740799766355394
 31
0.0
  0
LINE
  5
148
100
AcDbEntity
  8
G
 62
256
370
-1
 48
1.0
  6
BYLAYER
100
AcDbLine
 10
22.4184821003545949
 20
18.1740799766355394
 30
0.0
 11
19.1928821003555186
 21
20.0363810049336735
 31
0.0
  0
LINE
  5
149
100
AcDbEntity
  8
Layer3
 62
256
370
-1
 48
1.0
  6
BYLAYER
100
AcDbLine
 10
15.9977670447176479
 20
122.1521072512525734
 30
0.0
 11
15.9977670447176479
 21
118.4275051946547137
 31
0.0
  0
LINE
  5
14A
100
AcDbEntity
  8
Layer3
 62
256
370
-1
 48
1.0
  6
BYLAYER
100
AcDbLine
 10
15.9977670447176479
 20
118.4275051946547137
 30
0.0
 11
19.2233670447185432
 21
116.5652041663556702
 31
0.0
  0
LINE
  5
14B
100
AcDbEntity
  8
Layer3
 62
256
370
-1
 48
1.0
  6
BYLAYER
100
AcDbLine
 10
19.2233670447185432
 20
116.5652041663556702
 30
0.0
 11
22.4489670447205754
 21
118.4275051946547137
 31
0.0
  0
LINE
  5
14C
100
AcDbEntity
  8
Layer3
 62
256
370
-1
 48
1.0
  6
BYLAYER
100
AcDbLine
 10
22.4489670447205754
 20
118.4275051946547137
 30
0.0
 11
22.4489670447205754
 21
122.1521072512525734
 31
0.0
  0
LINE
  5
14D
100
AcDbEntity
  8
Layer3
 62
256
370
-1
 48
1.0
  6
BYLAYER
100
AcDbLine
 10
22.4489670447205754
 20
122.1521072512525734
 30
0.0
 11
19.2233670447185432
 21
124.0144082795516169
 31
0.0
  0
LINE
  5
14E
100
AcDbEntity
  8
Layer3
 62
256
370
-1
 48
1.0
  6
BYLAYER
100
AcDbLine
 10
19.2233670447185432
 20
124.0144082795516169
 30
0.0
 11
15.9977670447176479
 21
122.1521072512525734
 31
0.0
  0
LINE
  5
14F
100
AcDbEntity
  8
Layer3
 62
256
370
-1
 48
1.0
  6
BYLAYER
100
AcDbLine
 10
79.2985165092775333
 20
124.0144082795516169
 30
0.0
 11
76.0729165092757285
 21
122.1521072512525734
 31
0.0
  0
LINE
  5
150
100
AcDbEntity
  8
Layer3
 62
256
370
-1
 48
1.0
  6
BYLAYER
100
AcDbLine
 10
76.0729165092757285
 20
122.1521072512525734
 30
0.0
 11
76.0729165092757285
 21
118.4275051946547137
 31
0.0
  0
LINE
  5
151
100
AcDbEntity
  8
Layer3
 62
256
370
-1
 48
1.0
  6
BYLAYER
100
AcDbLine
 10
76.0729165092757285
 20
118.4275051946547137
 30
0.0
 11
79.2985165092775333
 21
116.5652041663565797
 31
0.0
  0
LINE
  5
152
100
AcDbEntity
  8
Layer3
 62
256
370
-1
 48
1.0
  6
BYLAYER
100
AcDbLine
 10
79.2985165092775333
 20
116.5652041663556702
 30
0.0
 11
82.5241165092786559
 21
118.4275051946547137
 31
0.0
  0
LINE
  5
153
100
AcDbEntity
  8
Layer3
 62
256
370
-1
 48
1.0
  6
BYLAYER
100
AcDbLine
 10
82.5241165092786559
 20
118.4275051946547137
 30
0.0
 11
82.5241165092786559
 21
122.1521072512525734
 31
0.0
  0
LINE
  5
154
100
AcDbEntity
  8
Layer3
 62
256
370
-1
 48
1.0
  6
BYLAYER
100
AcDbLine
 10
82.5241165092786559
 20
122.1521072512525734
 30
0.0
 11
79.2985165092775333
 21
124.0144082795516169
 31
0.0
  0
LINE
  5
155
100
AcDbEntity
  8
G
 62
256
370
-1
 48
1.0
  6
BYLAYER
100
AcDbLine
 10
13.1924486352495478
 20
13.4636435402985626
 30
0.0
 11
13.1923113448515323
 21
13.4609814776497387
 31
0.0
  0
LINE
  5
156
100
AcDbEntity
  8
G
 62
256
370
-1
 48
1.0
  6
BYLAYER
100
AcDbLine
 10
18.8083404698995764
 20
8.9024477161735831
 30
0.0
 11
18.8079962335846176
 21
8.9022237232336465
 31
0.0
  0
ARC
  5
157
100
AcDbEntity
  8
G
 62
256
370
-1
 48
1.0
  6
BYLAYER
100
AcDbCircle
 10
45.6904053513005692
 20
62.0788501511947288
 30
0.0
 40
73.8477915800378071
100
AcDbArc
 50
57.1840109829063152
 51
62.2195611149232022
  0
ARC
  5
158
100
AcDbEntity
  8
G
 62
256
370
-1
 48
1.0
  6
BYLAYER
100
AcDbCircle
 10
47.3197183567126558
 20
64.8876410399666383
 30
0.0
 40
69.4874771762108594
100
AcDbArc
 50
55.9529505894458765
 51
61.8453857036691801
  0
ARC
  5
159
100
AcDbEntity
  8
G
 62
256
370
-1
 48
1.0
  6
BYLAYER
100
AcDbCircle
 10
52.8298934122976789
 20
62.0822181008236385
 30
0.0
 40
73.8477915800378071
100
AcDbArc
 50
117.8241296573595349
 51
122.815989017093699
  0
ARC
  5
15A
100
AcDbEntity
  8
G
 62
256
370
-1
 48
1.0
  6
BYLAYER
100
AcDbCircle
 10
48.626915833605608
 20
69.2861632085555357
 30
0.0
 40
64.4021730255754647
100
AcDbArc
 50
118.0314061467079938
 51
124.5383703601088854
  0
ARC
  5
15B
100
AcDbEntity
  8
G
 62
256
370
-1
 48
1.0
  6
BYLAYER
100
AcDbCircle
 10
52.7753180472175245
 20
74.4744538977345201
 30
0.0
 40
73.8477915800378071
100
AcDbArc
 50
242.6152188009255894
 51
242.8159890170811934
  0
ARC
  5
15C
100
AcDbEntity
  8
G
 62
256
370
-1
 48
1.0
  6
BYLAYER
100
AcDbCircle
 10
49.260941776722575
 20
68.2632006503035882
 30
0.0
 40
66.7162642483742019
100
AcDbArc
 50
242.8417675505349962
 51
246.8966847173693111
  0
LINE
  5
15D
100
AcDbEntity
  8
G
 62
256
370
-1
 48
1.0
  6
BYLAYER
100
AcDbLine
 10
13.2147652118176211
 20
13.8963622542266876
 30
0.0
 11
15.7564150455605159
 21
12.4573499326806996
 31
0.0
  0
LINE
  5
15E
100
AcDbEntity
  8
G
 62
256
370
-1
 48
1.0
  6
BYLAYER
100
AcDbLine
 10
15.7564150455605159
 20
12.4573499326806996
 30
0.0
 11
20.3097244941207009
 21
9.8793911937145822
 31
0.0
  0
LINE
  5
15F
100
AcDbEntity
  8
G
 62
256
370
-1
 48
1.0
  6
BYLAYER
100
AcDbLine
 10
19.8911386643947026
 20
9.6070193757495872
 30
0.0
 11
19.8795772146165746
 21
9.5994963951065984
 31
0.0
  0
LINE
  5
160
100
AcDbEntity
  8
G
 62
256
370
-1
 48
1.0
  6
BYLAYER
100
AcDbLine
 10
23.0821242175957195
 20
6.8976612453166126
 30
0.0
 11
25.5468591184405796
 21
5.7857235078436133
 31
0.0
  0
LINE
  5
161
100
AcDbEntity
  8
G
 62
256
370
-1
 48
1.0
  6
BYLAYER
100
AcDbLine
 10
28.8158198066475961
 20
5.7857235078436133
 30
0.0
 11
25.5468591184405796
 21
5.7857235078436133
 31
0.0
  0
LINE
  5
162
100
AcDbEntity
  8
G
 62
256
370
-1
 48
1.0
  6
BYLAYER
100
AcDbLine
 10
19.1928821003555186
 20
20.0363810049336735
 30
0.0
 11
15.9672821003555327
 21
18.1740799766355394
 31
0.0
  0
LINE
  5
163
100
AcDbEntity
  8
G
 62
256
370
-1
 48
1.0
  6
BYLAYER
100
AcDbLine
 10
15.9672821003555327
 20
18.1740799766355394
 30
0.0
 11
15.9672821003555327
 21
14.4494779200397261
 31
0.0
  0
LINE
  5
164
100
AcDbEntity
  8
G
 62
256
370
-1
 48
1.0
  6
BYLAYER
100
AcDbLine
 10
15.9672821003555327
 20
14.4494779200397261
 30
0.0
 11
19.1928821003555186
 21
12.587176891741592
 31
0.0
  0
LINE
  5
165
100
AcDbEntity
  8
G
 62
256
370
-1
 48
1.0
  6
BYLAYER
100
AcDbLine
 10
19.1928821003555186
 20
12.587176891741592
 30
0.0
 11
22.4184821003545949
 21
14.4494779200397261
 31
0.0
  0
LINE
  5
166
100
AcDbEntity
  8
G
 62
256
370
-1
 48
1.0
  6
BYLAYER
100
AcDbLine
 10
22.4184821003545949
 20
14.4494779200397261
 30
0.0
 11
22.4184821003545949
 21
18.1740799766355394
 31
0.0
  0
LINE
  5
167
100
AcDbEntity
  8
G
 62
256
370
-1
 48
1.0
  6
BYLAYER
100
AcDbLine
 10
22.4184821003545949
 20
18.1740799766355394
 30
0.0
 11
19.1928821003555186
 21
20.0363810049336735
 31
0.0
  0
LINE
  5
168
100
AcDbEntity
  8
Layer3
 62
256
370
-1
 48
1.0
  6
BYLAYER
100
AcDbLine
 10
19.2233670447185432
 20
116.5652041663556702
 30
0.0
 11
22.4489670447205754
 21
118.4275051946547137
 31
0.0
  0
LINE
  5
169
100
AcDbEntity
  8
0
 62
256
370
-1
 48
1.0
  6
BYLAYER
100
AcDbLine
 10
18.3607622299157356
 20
126.1333252877136601
 30
0.0
 11
18.3607622299157356
 21
157.3584038844517181
 31
0.0
  0
LINE
  5
16A
100
AcDbEntity
  8
0
 62
256
370
-1
 48
1.0
  6
BYLAYER
100
AcDbLine
 10
18.3607622299157356
 20
157.3584038844517181
 30
0.0
 11
71.663920761497593
 21
157.3584038844517181
 31
0.0
  0
LINE
  5
16B
100
AcDbEntity
  8
0
 62
256
370
-1
 48
1.0
  6
BYLAYER
100
AcDbLine
 10
49.260941776722575
 20
-3.1865647290303514
 30
0.0
 11
49.260941776722575
 21
163.1865647290305787
 31
0.0
  0
LINE
  5
16C
100
AcDbEntity
  8
0
 62
256
370
-1
 48
1.0
  6
BYLAYER
100
AcDbLine
 10
80.1075588630815218
 20
126.1531859999465723
 30
0.0
 11
80.161121323526686
 21
157.3584038844517181
 31
0.0
  0
LINE
  5
16D
100
AcDbEntity
  8
0
 62
256
370
-1
 48
1.0
  6
BYLAYER
100
AcDbLine
 10
80.161121323526686
 20
157.3584038844517181
 30
0.0
 11
26.8579627919446011
 21
157.3584038844517181
 31
0.0
  0
LINE
  5
16E
100
AcDbEntity
  8
0
 62
256
370
-1
 48
1.0
  6
BYLAYER
100
AcDbLine
 10
-20.0223611990043082
 20
68.2632006503035882
 30
0.0
 11
120.0223611990045356
 21
68.2632006503035882
 31
0.0
  0
ARC
  5
16F
100
AcDbEntity
  8
Layer3
 62
256
370
-1
 48
1.0
  6
BYLAYER
100
AcDbCircle
 10
49.260941776722575
 20
68.2632006503026787
 30
0.0
 40
57.8207623485909892
100
AcDbArc
 50
242.3392336174352693
 51
57.6266656176739218
  0
ARC
  5
170
100
AcDbEntity
  8
Layer3
 62
256
370
-1
 48
1.0
  6
BYLAYER
100
AcDbCircle
 10
49.260941776722575
 20
68.2632006503035882
 30
0.0
 40
57.8207623485904634
100
AcDbArc
 50
62.3733343820416692
 51
117.6266656173115024
  0
ARC
  5
171
100
AcDbEntity
  8
Layer3
 62
256
370
-1
 48
1.0
  6
BYLAYER
100
AcDbCircle
 10
49.2609800766106218
 20
68.263200620278667
 30
0.0
 40
57.8207828810126614
100
AcDbArc
 50
122.3733664196045936
 51
237.5368000466177989
  0
LINE
  5
172
100
AcDbEntity
  8
Layer3
 62
256
370
-1
 48
1.0
  6
BYLAYER
100
AcDbLine
 10
85.2943047145165565
 20
14.1448186528336919
 30
0.0
 11
85.2943047145165565
 21
22.3443147360796956
 31
0.0
  0
ARC
  5
173
100
AcDbEntity
  8
Layer3
 62
256
370
-1
 48
1.0
  6
BYLAYER
100
AcDbCircle
 10
87.122793176455616
 20
22.1621306251377064
 30
0.0
 40
1.8375421371278939
100
AcDbArc
 50
128.4010555102565831
 51
174.3100308843173991
  0
LINE
  5
174
100
AcDbEntity
  8
G
 62
256
370
-1
 48
1.0
  6
BYLAYER
100
AcDbLine
 10
-2.0267008091022944
 20
94.9618574809585425
 30
0.0
 11
0.2261543486856681
 21
98.9035364914716411
 31
0.0
  0
LINE
  5
175
100
AcDbEntity
  8
G
 62
256
370
-1
 48
1.0
  6
BYLAYER
100
AcDbLine
 10
-5.3279819235863215
 20
87.3760479929396752
 30
0.0
 11
-3.6456270882104036
 21
91.5929036926036133
 31
0.0
  0
ARC
  5
176
100
AcDbEntity
  8
G
 62
256
370
-1
 48
1.0
  6
BYLAYER
100
AcDbCircle
 10
49.1762677127776442
 20
68.0750809148546523
 30
0.0
 40
57.8207623485909892
100
AcDbArc
 50
152.5000000000056275
 51
155.9999999999963904
  0
ARC
  5
177
100
AcDbEntity
  8
G
 62
256
370
-1
 48
1.0
  6
BYLAYER
100
AcDbCircle
 10
49.260941776722575
 20
68.2632006503035882
 30
0.0
 40
57.8207623485909892
100
AcDbArc
 50
144.5000000000163141
 51
147.9999999999949978
  0
LINE
  5
178
100
AcDbEntity
  8
G
 62
256
370
-1
 48
1.0
  6
BYLAYER
100
AcDbLine
 10
1.9808335069576515
 20
101.3323749620055878
 30
0.0
 11
-3.2393921608922938
 21
103.9515658481086575
 31
0.0
  0
LINE
  5
179
100
AcDbEntity
  8
G
 62
256
370
-1
 48
1.0
  6
BYLAYER
100
AcDbLine
 10
-0.0056566177004242
 20
98.3593823939645517
 30
0.0
 11
-4.3284361687294677
 21
102.3974523512436008
 31
0.0
  0
ARC
  5
17A
100
AcDbEntity
  8
G
 62
256
370
-1
 48
1.0
  6
BYLAYER
100
AcDbCircle
 10
-3.5599200371414099
 20
103.2201537539956462
 30
0.0
 40
1.125812880811355
100
AcDbArc
 50
154.6004864164688968
 51
226.9503230095708659
  0
ARC
  5
17B
100
AcDbEntity
  8
G
 62
256
370
-1
 48
1.0
  6
BYLAYER
100
AcDbCircle
 10
-3.7442704172713093
 20
102.9453091269697325
 30
0.0
 40
1.125812880811355
100
AcDbArc
 50
63.3552936942365363
 51
137.6965226873724077
  0
LINE
  5
17C
100
AcDbEntity
  8
G
 62
256
370
-1
 48
1.0
  6
BYLAYER
100
AcDbLine
 10
-3.6611144583632722
 20
91.5087845704215397
 30
0.0
 11
-8.5038157338053679
 21
94.9059416735765353
 31
0.0
  0
ARC
  5
17D
100
AcDbEntity
  8
G
 62
256
370
-1
 48
1.0
  6
BYLAYER
100
AcDbCircle
 10
-7.8572766537674852
 20
95.8275933760016869
 30
0.0
 40
1.125812880811355
100
AcDbArc
 50
162.6004864164686126
 51
234.9503230096460129
  0
LINE
  5
17E
100
AcDbEntity
  8
G
 62
256
370
-1
 48
1.0
  6
BYLAYER
100
AcDbLine
 10
-2.1077173138712624
 20
94.7293101698335249
 30
0.0
 11
-7.6416610219944232
 21
96.5964962763737276
 31
0.0
  0
ARC
  5
17F
100
AcDbEntity
  8
G
 62
256
370
-1
 48
1.0
  6
BYLAYER
100
AcDbCircle
 10
-8.0015819696454855
 20
95.5297669039255197
 30
0.0
 40
1.125812880811355
100
AcDbArc
 50
71.3552936942380711
 51
145.6965226873298889
  0
LINE
  5
180
100
AcDbEntity
  8
G
 62
256
370
-1
 48
1.0
  6
BYLAYER
100
AcDbLine
 10
-5.5888207189543664
 20
86.5592142254047303
 30
0.0
 11
-11.0050679856683473
 21
87.5772121504255665
 31
0.0
  0
ARC
  5
181
100
AcDbEntity
  8
G
 62
256
370
-1
 48
1.0
  6
BYLAYER
100
AcDbCircle
 10
-11.2130261727493235
 20
86.4707728005155332
 30
0.0
 40
1.125812880811355
100
AcDbArc
 50
79.3552936942291893
 51
153.6965226873687129
  0
LINE
  5
182
100
AcDbEntity
  8
G
 62
256
370
-1
 48
1.0
  6
BYLAYER
100
AcDbLine
 10
-6.5933030551564116
 20
83.2145849618955253
 30
0.0
 11
-11.6235525406773377
 21
85.7831211640607307
 31
0.0
  0
ARC
  5
183
100
AcDbEntity
  8
G
 62
256
370
-1
 48
1.0
  6
BYLAYER
100
AcDbCircle
 10
-11.1115746599523391
 20
86.7857842641335537
 30
0.0
 40
1.125812880811355
100
AcDbArc
 50
170.600486416479697
 51
242.9503230096200923
  0
ARC
  5
184
100
AcDbEntity
  8
G
 62
256
370
-1
 48
1.0
  6
BYLAYER
100
AcDbCircle
 10
-13.4690883134094292
 20
78.1002498173415916
 30
0.0
 40
1.125812880811355
100
AcDbArc
 50
178.6004864164654862
 51
250.9503230095901642
  0
LINE
  5
185
100
AcDbEntity
  8
G
 62
256
370
-1
 48
1.0
  6
BYLAYER
100
AcDbLine
 10
-7.6395292725574109
 20
78.6293055735216058
 30
0.0
 11
-13.4737636278803166
 21
78.8987984459795371
 31
0.0
  0
ARC
  5
186
100
AcDbEntity
  8
G
 62
256
370
-1
 48
1.0
  6
BYLAYER
100
AcDbCircle
 10
-13.5257113848292647
 20
77.7741847020006389
 30
0.0
 40
1.125812880811355
100
AcDbArc
 50
87.3552936942564315
 51
161.6965226873579127
  0
LINE
  5
187
100
AcDbEntity
  8
G
 62
256
370
-1
 48
1.0
  6
BYLAYER
100
AcDbLine
 10
-8.2450532855764322
 20
75.1053633925755548
 30
0.0
 11
-13.8365399277374763
 21
77.0360910163485642
 31
0.0
  0
LINE
  5
188
100
AcDbEntity
  8
G
 62
256
370
-1
 48
1.0
  6
BYLAYER
100
AcDbLine
 10
106.909246469541813
 20
66.4122202528367325
 30
0.0
 11
112.7242086159194514
 21
66.9573185534457025
 31
0.0
  0
ARC
  5
189
100
AcDbEntity
  8
G
 62
256
370
-1
 48
1.0
  6
BYLAYER
100
AcDbCircle
 10
112.6191348387364997
 20
68.0782173641987356
 30
0.0
 40
1.125812880811355
100
AcDbArc
 50
275.3552936943131044
 51
349.6965226873510915
  0
ARC
  5
18A
100
AcDbEntity
  8
G
 62
256
370
-1
 48
1.0
  6
BYLAYER
100
AcDbCircle
 10
112.6084423123734268
 20
67.7474450837116819
 30
0.0
 40
1.125812880811355
100
AcDbArc
 50
6.6004864164477679
 51
78.9503230096586464
  0
LINE
  5
18B
100
AcDbEntity
  8
G
 62
256
370
-1
 48
1.0
  6
BYLAYER
100
AcDbLine
 10
107.0184396035647296
 20
69.9861403253155459
 30
0.0
 11
112.8242156326027725
 21
68.8523869450225448
 31
0.0
  0
ARC
  5
18C
100
AcDbEntity
  8
G
 62
256
370
-1
 48
1.0
  6
BYLAYER
100
AcDbCircle
 10
49.260941776722575
 20
68.2632006503015418
 30
0.0
 40
57.8207623485909892
100
AcDbArc
 50
331.9999999999835154
 51
336.5000000000234763
  0
ARC
  5
18D
100
AcDbEntity
  8
G
 62
256
370
-1
 48
1.0
  6
BYLAYER
100
AcDbCircle
 10
104.3779506831274375
 20
36.4904328214906855
 30
0.0
 40
1.125812880811355
100
AcDbArc
 50
338.6004864164819423
 51
50.9503230096377848
  0
ARC
  5
18E
100
AcDbEntity
  8
G
 62
256
370
-1
 48
1.0
  6
BYLAYER
100
AcDbCircle
 10
104.5426798029907332
 20
36.7774675732705418
 30
0.0
 40
1.125812880811355
100
AcDbArc
 50
247.3552936941976839
 51
321.6965226873506936
  0
LINE
  5
18F
100
AcDbEntity
  8
G
 62
256
370
-1
 48
1.0
  6
BYLAYER
100
AcDbLine
 10
98.7190093444487502
 20
37.9871096501017291
 30
0.0
 11
104.1092243252178378
 21
35.7384435160956855
 31
0.0
  0
LINE
  5
190
100
AcDbEntity
  8
G
 62
256
370
-1
 48
1.0
  6
BYLAYER
100
AcDbLine
 10
100.4932750009897973
 20
41.0914307038926836
 30
0.0
 11
105.0872059992457253
 21
37.3647391403296751
 31
0.0
  0
LINE
  5
191
100
AcDbEntity
  8
G
 62
256
370
-1
 48
1.0
  6
BYLAYER
100
AcDbLine
 10
102.3678365324617516
 20
45.0441150578897123
 30
0.0
 11
108.01854815046363
 21
43.5675057218377333
 31
0.0
  0
ARC
  5
192
100
AcDbEntity
  8
G
 62
256
370
-1
 48
1.0
  6
BYLAYER
100
AcDbCircle
 10
108.3031810693128136
 20
44.6567434112816954
 30
0.0
 40
1.125812880811355
100
AcDbArc
 50
255.355293694268596
 51
329.6965226873946904
  0
ARC
  5
193
100
AcDbEntity
  8
G
 62
256
370
-1
 48
1.0
  6
BYLAYER
100
AcDbCircle
 10
108.1800025984116473
 20
44.3495761995466182
 30
0.0
 40
1.125812880811355
100
AcDbArc
 50
346.6004864164655714
 51
58.9503230096067128
  0
LINE
  5
194
100
AcDbEntity
  8
G
 62
256
370
-1
 48
1.0
  6
BYLAYER
100
AcDbLine
 10
103.6927971701666138
 20
48.3651551259285952
 30
0.0
 11
108.760675568964416
 21
45.3140830911077046
 31
0.0
  0
LINE
  5
195
100
AcDbEntity
  8
G
 62
256
370
-1
 48
1.0
  6
BYLAYER
100
AcDbLine
 10
104.9911631416275668
 20
52.9375992376285467
 30
0.0
 11
110.792386722806441
 21
52.2617872206396896
 31
0.0
  0
ARC
  5
196
100
AcDbEntity
  8
G
 62
256
370
-1
 48
1.0
  6
BYLAYER
100
AcDbCircle
 10
110.9226570267337593
 20
53.3800377697175463
 30
0.0
 40
1.125812880811355
100
AcDbArc
 50
263.355293694207603
 51
337.6965226873728056
  0
LINE
  5
197
100
AcDbEntity
  8
G
 62
256
370
-1
 48
1.0
  6
BYLAYER
100
AcDbLine
 10
105.8410299088045576
 20
56.4107180526186767
 30
0.0
 11
111.284215219737689
 21
54.0946511931535952
 31
0.0
  0
ARC
  5
198
100
AcDbEntity
  8
G
 62
256
370
-1
 48
1.0
  6
BYLAYER
100
AcDbCircle
 10
110.8434267336147059
 20
53.0587167584046711
 30
0.0
 40
1.125812880811355
100
AcDbArc
 50
354.6004864164918899
 51
66.9503230096120632
  0
LINE
  5
199
100
AcDbEntity
  8
G
 62
256
370
-1
 48
1.0
  6
BYLAYER
100
AcDbLine
 10
106.2197963931075719
 20
60.4234388816755654
 30
0.0
 11
112.0586177192485593
 21
60.5615780959326457
 31
0.0
  0
ARC
  5
19A
100
AcDbEntity
  8
G
 62
256
370
-1
 48
1.0
  6
BYLAYER
100
AcDbCircle
 10
112.031989844968848
 20
61.6870760296997105
 30
0.0
 40
1.125812880811355
100
AcDbArc
 50
271.3552936942514862
 51
345.6965226873272172
  0
ARC
  5
19B
100
AcDbEntity
  8
G
 62
256
370
-1
 48
1.0
  6
BYLAYER
100
AcDbCircle
 10
111.9982498571635006
 20
61.3578553667955475
 30
0.0
 40
1.125812880811355
100
AcDbArc
 50
2.6004864164620769
 51
74.9503230095868958
  0
LINE
  5
19C
100
AcDbEntity
  8
G
 62
256
370
-1
 48
1.0
  6
BYLAYER
100
AcDbLine
 10
106.5780275998417892
 20
63.9810361364957316
 30
0.0
 11
112.2905744123645491
 21
62.4450540593206824
 31
0.0
  0
LINE
  5
19D
100
AcDbEntity
  8
G
 62
256
370
-1
 48
1.0
  6
BYLAYER
100
AcDbLine
 10
20.814383392778609
 20
10.2077703501865926
 30
0.0
 11
16.9774731495856486
 21
7.7111110175146678
 31
0.0
  0
LINE
  5
19E
100
AcDbEntity
  8
G
 62
256
370
-1
 48
1.0
  6
BYLAYER
100
AcDbLine
 10
24.9824180968616929
 20
12.919890802136706
 30
0.0
 11
20.814383392778609
 21
10.2077703501865926
 31
0.0
  0
ARC
  5
19F
100
AcDbEntity
  8
Layer3
 62
256
370
-1
 48
1.0
  6
BYLAYER
100
AcDbCircle
 10
11.4508397469717238
 20
14.2364503126286763
 30
0.0
 40
1.7791003799568601
100
AcDbArc
 50
270.0000000000260343
 51
357.0477037822175248
  0
LINE
  5
1A0
100
AcDbEntity
  8
Layer3
 62
256
370
-1
 48
1.0
  6
BYLAYER
100
AcDbLine
 10
13.227578838927684
 20
14.1448186528257338
 30
0.0
 11
13.2275788389256377
 21
22.3443147360706007
 31
0.0
  0
ARC
  5
1A1
100
AcDbEntity
  8
Layer3
 62
256
370
-1
 48
1.0
  6
BYLAYER
100
AcDbCircle
 10
11.3990903769836223
 20
22.162130625197733
 30
0.0
 40
1.8375421371278939
100
AcDbArc
 50
5.6899691155919001
 51
51.598944489646442
  0
ENDSEC
  0
SECTION
  2
OBJECTS
  0
DICTIONARY
  5
C
100
AcDbDictionary
280
0
281
1
  3
ACAD_GROUP
350
D
  3
ACAD_LAYOUT
350
1A
  3
ACAD_MLINESTYLE
350
17
  3
ACAD_PLOTSETTINGS
350
19
  3
ACAD_PLOTSTYLENAME
350
E
  3
AcDbVariableDictionary
350
1A2
  3
QCAD_OBJECTS
350
1A3
  0
DICTIONARY
  5
D
100
AcDbDictionary
280
0
281
1
  0
ACDBDICTIONARYWDFLT
  5
E
100
AcDbDictionary
281
1
  3
Normal
350
F
100
AcDbDictionaryWithDefault
340
F
  0
ACDBPLACEHOLDER
  5
F
  0
DICTIONARY
  5
17
100
AcDbDictionary
280
0
281
1
  3
Standard
350
18
  0
MLINESTYLE
  5
18
100
AcDbMlineStyle
  2
STANDARD
 70
0
  3

 62
256
 51
90.0
 52
90.0
 71
2
 49
0.5
 62
256
  6
BYLAYER
 49
-0.5
 62
256
  6
BYLAYER
  0
DICTIONARY
  5
19
100
AcDbDictionary
280
0
281
1
  0
DICTIONARY
  5
1A
100
AcDbDictionary
281
1
  3
Layout1
350
1E
  3
Layout2
350
26
  3
Model
350
22
  0
LAYOUT
  5
1E
100
AcDbPlotSettings
  1

  2
none_device
  4

  6

 40
0.0
 41
0.0
 42
0.0
 43
0.0
 44
0.0
 45
0.0
 46
0.0
 47
0.0
 48
0.0
 49
0.0
140
0.0
141
0.0
142
1.0
143
1.0
 70
688
 72
0
 73
0
 74
5
  7

 75
16
147
1.0
148
0.0
149
0.0
100
AcDbLayout
  1
Layout1
 70
1
 71
1
 10
0.0
 20
0.0
 11
420.0
 21
297.0
 12
0.0
 22
0.0
 32
0.0
 14
100000000000000000000.0
 24
100000000000000000000.0
 34
100000000000000000000.0
 15
-100000000000000000000.0
 25
-100000000000000000000.0
 35
-100000000000000000000.0
146
0.0
 13
0.0
 23
0.0
 33
0.0
 16
1.0
 26
0.0
 36
0.0
 17
0.0
 27
1.0
 37
0.0
 76
0
330
1B
  0
LAYOUT
  5
22
100
AcDbPlotSettings
  1

  2
none_device
  4

  6

 40
0.0
 41
0.0
 42
0.0
 43
0.0
 44
0.0
 45
0.0
 46
0.0
 47
0.0
 48
0.0
 49
0.0
140
0.0
141
0.0
142
1.0
143
1.0
 70
1712
 72
0
 73
0
 74
0
  7

 75
0
147
1.0
148
0.0
149
0.0
100
AcDbLayout
  1
Model
 70
1
 71
0
 10
0.0
 20
0.0
 11
12.0
 21
9.0
 12
0.0
 22
0.0
 32
0.0
 14
0.0
 24
0.0
 34
0.0
 15
0.0
 25
0.0
 35
0.0
146
0.0
 13
0.0
 23
0.0
 33
0.0
 16
1.0
 26
0.0
 36
0.0
 17
0.0
 27
1.0
 37
0.0
 76
0
330
1F
  0
LAYOUT
  5
26
100
AcDbPlotSettings
  1

  2
none_device
  4

  6

 40
0.0
 41
0.0
 42
0.0
 43
0.0
 44
0.0
 45
0.0
 46
0.0
 47
0.0
 48
0.0
 49
0.0
140
0.0
141
0.0
142
1.0
143
1.0
 70
688
 72
0
 73
0
 74
5
  7

 75
16
147
1.0
148
0.0
149
0.0
100
AcDbLayout
  1
Layout2
 70
1
 71
2
 10
0.0
 20
0.0
 11
12.0
 21
9.0
 12
0.0
 22
0.0
 32
0.0
 14
0.0
 24
0.0
 34
0.0
 15
0.0
 25
0.0
 35
0.0
146
0.0
 13
0.0
 23
0.0
 33
0.0
 16
1.0
 26
0.0
 36
0.0
 17
0.0
 27
1.0
 37
0.0
 76
0
330
23
  0
DICTIONARY
  5
1A2
100
AcDbDictionary
281
1
  3
DIMASSOC
350
1A5
  3
HIDETEXT
350
1A4
  0
DICTIONARYVAR
  5
1A4
100
DictionaryVariables
280
0
  1
2
  0
DICTIONARYVAR
  5
1A5
100
DictionaryVariables
280
0
  1
1
  0
DICTIONARY
  5
1A3
100
AcDbDictionary
281
1
  3
ColorSettings/BackgroundColor
350
1A6
  3
ColorSettings/ColorMode
350
1A7
  3
Grid/DisplayGrid00
350
1A8
  3
Grid/DisplayGrid01
350
1A9
  3
Grid/DisplayGrid02
350
1AA
  3
Grid/DisplayGrid03
350
1AB
  3
Grid/GridSpacingX00
350
1AC
  3
Grid/GridSpacingX01
350
1AD
  3
Grid/GridSpacingX02
350
1AE
  3
Grid/GridSpacingX03
350
1AF
  3
Grid/GridSpacingY00
350
1B0
  3
Grid/GridSpacingY01
350
1B1
  3
Grid/GridSpacingY02
350
1B2
  3
Grid/GridSpacingY03
350
1B3
  3
Grid/IsometricGrid00
350
1B4
  3
Grid/IsometricGrid01
350
1B5
  3
Grid/IsometricGrid02
350
1B6
  3
Grid/IsometricGrid03
350
1B7
  3
Grid/IsometricProjection00
350
1B8
  3
Grid/IsometricProjection01
350
1B9
  3
Grid/IsometricProjection02
350
1BA
  3
Grid/IsometricProjection03
350
1BB
  3
Grid/MetaGridSpacingX00
350
1BC
  3
Grid/MetaGridSpacingX01
350
1BD
  3
Grid/MetaGridSpacingX02
350
1BE
  3
Grid/MetaGridSpacingX03
350
1BF
  3
Grid/MetaGridSpacingY00
350
1C0
  3
Grid/MetaGridSpacingY01
350
1C1
  3
Grid/MetaGridSpacingY02
350
1C2
  3
Grid/MetaGridSpacingY03
350
1C3
  3
MultiPageSettings/Columns
350
1C4
  3
MultiPageSettings/GlueMarginsBottom
350
1C5
  3
MultiPageSettings/GlueMarginsLeft
350
1C6
  3
MultiPageSettings/GlueMarginsRight
350
1C7
  3
MultiPageSettings/GlueMarginsTop
350
1C8
  3
MultiPageSettings/PrintCropMarks
350
1C9
  3
MultiPageSettings/Rows
350
1CA
  3
PageSettings/OffsetX
350
1CB
  3
PageSettings/OffsetY
350
1CC
  3
PageSettings/PageOrientation
350
1CD
  3
PageSettings/PaperHeight
350
1CE
  3
PageSettings/PaperWidth
350
1CF
  3
PageSettings/Scale
350
1D0
  3
PageSettings/ShowPaperBorders
350
1D1
  3
PageTagSettings/EnablePageTags
350
1D2
  3
PageTagSettings/TagAlignment
350
1D3
  3
PageTagSettings/TagFont
350
1D4
  3
PageTagSettings/TagPosition
350
1D5
  3
UnitSettings/PaperUnit
350
1D6
  3
ViewportCenter
350
1D7
  3
ViewportHeight
350
1D8
  3
ViewportWidth
350
1D9
  0
XRECORD
  5
1A6
330
1A3
100
AcDbXrecord
280
1
1000
\U+0411\U+0435\U+043b\U+044b\U+0439
  0
XRECORD
  5
1A7
330
1A3
100
AcDbXrecord
280
1
1000
FullColor
  0
XRECORD
  5
1A8
330
1A3
100
AcDbXrecord
280
1
290
1
  0
XRECORD
  5
1A9
330
1A3
100
AcDbXrecord
280
1
290
1
  0
XRECORD
  5
1AA
330
1A3
100
AcDbXrecord
280
1
290
1
  0
XRECORD
  5
1AB
330
1A3
100
AcDbXrecord
280
1
290
1
  0
XRECORD
  5
1AC
330
1A3
100
AcDbXrecord
280
1
1000
auto
  0
XRECORD
  5
1AD
330
1A3
100
AcDbXrecord
280
1
1000
auto
  0
XRECORD
  5
1AE
330
1A3
100
AcDbXrecord
280
1
1000
auto
  0
XRECORD
  5
1AF
330
1A3
100
AcDbXrecord
280
1
1000
auto
  0
XRECORD
  5
1B0
330
1A3
100
AcDbXrecord
280
1
1000
auto
  0
XRECORD
  5
1B1
330
1A3
100
AcDbXrecord
280
1
1000
auto
  0
XRECORD
  5
1B2
330
1A3
100
AcDbXrecord
280
1
1000
auto
  0
XRECORD
  5
1B3
330
1A3
100
AcDbXrecord
280
1
1000
auto
  0
XRECORD
  5
1B4
330
1A3
100
AcDbXrecord
280
1
290
0
  0
XRECORD
  5
1B5
330
1A3
100
AcDbXrecord
280
1
290
0
  0
XRECORD
  5
1B6
330
1A3
100
AcDbXrecord
280
1
290
0
  0
XRECORD
  5
1B7
330
1A3
100
AcDbXrecord
280
1
290
0
  0
XRECORD
  5
1B8
330
1A3
100
AcDbXrecord
280
1
 90
65537
  0
XRECORD
  5
1B9
330
1A3
100
AcDbXrecord
280
1
 90
65537
  0
XRECORD
  5
1BA
330
1A3
100
AcDbXrecord
280
1
 90
65537
  0
XRECORD
  5
1BB
330
1A3
100
AcDbXrecord
280
1
 90
65537
  0
XRECORD
  5
1BC
330
1A3
100
AcDbXrecord
280
1
1000
auto
  0
XRECORD
  5
1BD
330
1A3
100
AcDbXrecord
280
1
1000
auto
  0
XRECORD
  5
1BE
330
1A3
100
AcDbXrecord
280
1
1000
auto
  0
XRECORD
  5
1BF
330
1A3
100
AcDbXrecord
280
1
1000
auto
  0
XRECORD
  5
1C0
330
1A3
100
AcDbXrecord
280
1
1000
auto
  0
XRECORD
  5
1C1
330
1A3
100
AcDbXrecord
280
1
1000
auto
  0
XRECORD
  5
1C2
330
1A3
100
AcDbXrecord
280
1
1000
auto
  0
XRECORD
  5
1C3
330
1A3
100
AcDbXrecord
280
1
1000
auto
  0
XRECORD
  5
1C4
330
1A3
100
AcDbXrecord
280
1
 90
1
  0
XRECORD
  5
1C5
330
1A3
100
AcDbXrecord
280
1
 40
10.0
  0
XRECORD
  5
1C6
330
1A3
100
AcDbXrecord
280
1
 40
10.0
  0
XRECORD
  5
1C7
330
1A3
100
AcDbXrecord
280
1
 40
10.0
  0
XRECORD
  5
1C8
330
1A3
100
AcDbXrecord
280
1
 40
10.0
  0
XRECORD
  5
1C9
330
1A3
100
AcDbXrecord
280
1
290
0
  0
XRECORD
  5
1CA
330
1A3
100
AcDbXrecord
280
1
 90
1
  0
XRECORD
  5
1CB
330
1A3
100
AcDbXrecord
280
1
 40
0.0
  0
XRECORD
  5
1CC
330
1A3
100
AcDbXrecord
280
1
 40
0.0
  0
XRECORD
  5
1CD
330
1A3
100
AcDbXrecord
280
1
1000
Portrait
  0
XRECORD
  5
1CE
330
1A3
100
AcDbXrecord
280
1
 40
297.0
  0
XRECORD
  5
1CF
330
1A3
100
AcDbXrecord
280
1
 40
210.0
  0
XRECORD
  5
1D0
330
1A3
100
AcDbXrecord
280
1
1000
1:1
  0
XRECORD
  5
1D1
330
1A3
100
AcDbXrecord
280
1
290
1
  0
XRECORD
  5
1D2
330
1A3
100
AcDbXrecord
280
1
290
0
  0
XRECORD
  5
1D3
330
1A3
100
AcDbXrecord
280
1
1000
Inside
  0
XRECORD
  5
1D4
330
1A3
100
AcDbXrecord
280
1
1000
Arial,10,-1,5,50,0,0,0,0,0
  0
XRECORD
  5
1D5
330
1A3
100
AcDbXrecord
280
1
1000
TopLeft
  0
XRECORD
  5
1D6
330
1A3
100
AcDbXrecord
280
1
 90
4
  0
XRECORD
  5
1D8
330
1A3
100
AcDbXrecord
280
1
 40
326.0981182463998493
  0
XRECORD
  5
1D9
330
1A3
100
AcDbXrecord
280
1
 40
501.5306502143997704
  0
ENDSEC
  0
EOF
